<svg viewBox="0 0 464 464" xmlns="http://www.w3.org/2000/svg"><path d="m336 224c0 92.785156-75.214844 168-168 168s-168-75.214844-168-168 75.214844-168 168-168 168 75.214844 168 168zm0 0" fill="#f04d3e"/><path d="m254.167969 57.28125-18.550781 12.992188-59.617188 41.726562 89.855469-10.398438c4.933593-.570312 9.847656-1.261718 14.738281-2.066406 70.621094-11.515625 135.261719-46.597656 183.40625-99.535156h-28.113281c-65.011719 0-128.453125 20-181.71875 57.28125zm0 0" fill="#3b7025"/><path d="m138.640625 92.679688c-4.324219 5.945312-10.042969 10.734374-16.65625 13.945312-44.382813 20.8125-77.949219 59.355469-92.464844 106.175781l-2.886719 9.398438c-1.257812 4.097656 1.039063 8.4375 5.136719 9.695312l.460938.144531c4.097656 1.257813 8.4375-1.039062 9.699219-5.136718l2.871093-9.375c12.796875-41.324219 41.949219-75.605469 80.679688-94.878906 1.960937-1.074219 4.289062-1.261719 6.398437-.515626 2.109375.75 3.800782 2.359376 4.648438 4.425782.988281 2.585937 2.222656 5.070312 3.6875 7.417968 1.230468 2.066407 3.339844 3.453126 5.726562 3.765626 2.382813.3125 4.777344-.488282 6.5-2.167969l.359375-.375c2.5625-2.652344 2.941407-6.726563.910157-9.808594-6.429688-10.746094-5.101563-24.429687 3.28125-33.734375l7.3125-7.746094c2.21875-2.34375 2.734374-5.820312 1.296874-8.710937-1.195312-2.382813-3.539062-3.976563-6.191406-4.210938-2.65625-.234375-5.242187.921875-6.835937 3.058594zm0 0" fill="#d23a2c"/><path d="m254.214844 432.390625c-24.5625.148437-48.515625-7.648437-68.285156-22.230469-57.25-42.398437-64.503907-135.398437-36.65625-196.3125 9.671874-21.722656 25.5-40.132812 45.527343-52.960937l-.066406-.238281-11.199219 3.496093c-40.359375 12.613281-73.269531 42.105469-90.214844 80.847657l-.144531.328124c-31.21875 71.347657-.945312 154.640626 68.800781 189.296876 23.40625 11.339843 50.144532 13.742187 75.199219 6.757812l33.847657-9.117188zm0 0" fill="#f36d41"/><path d="m296 184v22.679688c-.265625 13.097656 9.660156 24.164062 22.710938 25.320312 1.109374.058594 2.222656.039062 3.328124-.054688 7.132813-.917968 13.472657-5.003906 17.25-11.125 3.78125-6.117187 4.59375-13.617187 2.214844-20.40625l-4.238281-12.941406c-.710937-2.207031-1.246094-4.46875-1.601563-6.761718l-15.664062 3.289062-24.246094-2.464844c.140625.816406.222656 1.636719.246094 2.464844zm0 0" fill="#de643b"/><path d="m256.070312 143.945312h-1.671874c-5.40625-.019531-10.808594.351563-16.167969 1.101563-39.554688 5.984375-73.195313 32.011719-88.917969 68.800781-27.847656 60.914063-20.59375 153.953125 36.65625 196.3125 19.769531 14.582032 43.722656 22.378906 68.289062 22.230469l36.382813-.285156c8.574219-.066407 16.816406 3.308593 22.878906 9.375l22.480469 22.519531 4.367188-22.039062c2.332031-11.429688 10.636718-20.714844 21.738281-24.296876 53.832031-17.839843 82.125-78.03125 89.40625-130.6875 7.320312-53.015624-7.710938-108.863281-49.265625-144.480468-16.765625-14.355469-41.898438-12.820313-56.796875 3.464844-9.992188 11.347656-13.109375 27.191406-8.160157 41.480468l4.238282 12.941406c2.378906 6.789063 1.566406 14.285157-2.214844 20.40625-3.777344 6.121094-10.113281 10.207032-17.25 11.121094-1.105469.097656-2.21875.117188-3.328125.058594-13.058594-1.144531-23-12.214844-22.734375-25.320312v-22.648438c-.066406-1.339844-.203125-2.675781-.40625-4-1.972656-20.378906-19.046875-35.957031-39.523438-36.054688zm0 0" fill="#ffd976"/><path d="m338.296875 248.3125-8.199219-5.113281c-7.0625-4.441407-16.097656-4.21875-22.929687.570312-21.589844 15.515625-35.71875 39.339844-38.980469 65.726563-3.257812 26.386718 4.648438 52.9375 21.8125 73.238281l14.335938 16.800781c2.273437 2.675782 4.359374 5.503906 6.238281 8.464844l18.609375 29.089844 17.457031-29.992188c1.636719-2.816406 3.449219-5.527344 5.429687-8.113281l9.992188-13.03125c16.101562-21.066406 22.6875-47.886719 18.175781-74.011719s-19.710937-49.183594-41.941406-63.628906zm0 0" fill="#f36d41"/><path d="m334.800781 264.878906-6.121093-3.671875c-5.300782-3.179687-11.960938-3.019531-17.105469.410157-16.003907 10.667968-26.601563 27.75-29.054688 46.828124-2.453125 19.078126 3.472657 38.285157 16.257813 52.660157l10.703125 12.039062c1.6875 1.902344 3.242187 3.917969 4.65625 6.03125l13.863281 20.824219 13.023438-21.472656c1.226562-2.015625 2.582031-3.953125 4.054687-5.800782l7.457031-9.328124c11.972656-14.984376 16.894532-34.40625 13.496094-53.285157-3.398438-18.875-14.785156-35.367187-31.230469-45.234375zm0 0" fill="#842c1c"/><g fill="#732618"><path d="m296 296h16v16h-16zm0 0"/><path d="m344 320h16v16h-16zm0 0"/><path d="m328 352h16v16h-16zm0 0"/><path d="m328 280h16v16h-16zm0 0"/><path d="m304 328h16v16h-16zm0 0"/></g></svg>