<svg viewBox="0 0 379 379.92433" xmlns="http://www.w3.org/2000/svg"><path d="m380.136719 352.523438-10.863281-76.046876c-6.710938-46.960937-36.035157-87.644531-78.464844-108.863281l-3.574219 7.160157-112 112-7.160156 3.574218c21.21875 42.429688 61.902343 71.75 108.863281 78.464844l76.050781 10.863281c1.144531.167969 2.304688.25 3.460938.25 6.949219-.023437 13.542969-3.050781 18.085937-8.304687 4.542969-5.253906 6.585938-12.21875 5.601563-19.097656zm0 0" fill="#1a6b01"/><path d="m258.875 206.035156 58.757812-44.0625c26.128907-19.691406 41.523438-50.484375 41.601563-83.199218v-32c0-13.257813-10.746094-24-24-24h-32c-32.714844.078124-63.507813 15.472656-83.199219 41.597656l-44.074218 58.753906zm0 0" fill="#1d7801"/><g fill="#175e01"><path d="m367.234375 355.460938-20.457031-20.457032c-2.113282-2.113281-2.875-5.234375-1.964844-8.085937.90625-2.847657 3.328125-4.953125 6.277344-5.457031l8.464844-1.441407c2.09375-.355469 3.960937-1.53125 5.1875-3.269531 1.222656-1.734375 1.710937-3.882812 1.347656-5.976562-.742188-4.355469-4.871094-7.285157-9.222656-6.546876l-30.824219 5.257813c-2.558594.433594-5.167969-.398437-7-2.230469l-4.496094-4.480468c-3.125-3.125-8.1875-3.125-11.3125 0-3.121094 3.121093-3.121094 8.1875 0 11.3125l4.488281 4.488281c1.835938 1.835937 2.664063 4.449219 2.222656 7.007812l-5.285156 30.789063c-.746094 4.351562 2.175782 8.484375 6.527344 9.234375 4.351562.742187 8.480469-2.179688 9.230469-6.527344l1.464843-8.523437c.507813-2.945313 2.613282-5.363282 5.464844-6.265626 2.851563-.90625 5.964844-.144531 8.078125 1.972657l20.496094 20.511719c3.125 3.121093 8.1875 3.121093 11.3125 0 3.125-3.125 3.125-8.1875 0-11.3125zm0 0"/><path d="m231.957031 337.320312 12.792969-30.289062c1.71875-4.070312 6.414062-5.976562 10.484375-4.257812s5.972656 6.414062 4.253906 10.480468l-12.792969 30.292969c-1.71875 4.066406-6.410156 5.972656-10.480468 4.253906-4.070313-1.71875-5.976563-6.410156-4.257813-10.480469zm0 0"/><path d="m266.554688 348.476562 13.503906-36.035156c1.550781-4.136718 6.164062-6.230468 10.300781-4.679687s6.234375 6.160156 4.683594 10.296875l-13.507813 36.03125c-1.550781 4.136718-6.160156 6.234375-10.300781 4.683594-4.136719-1.550782-6.230469-6.160157-4.679687-10.296876zm0 0"/><path d="m312.851562 279.566406 36.902344-14.058594c4.128906-1.570312 8.75.5 10.320313 4.628907 1.574219 4.128906-.496094 8.75-4.625 10.324219l-36.902344 14.054687c-4.128906 1.574219-8.753906-.496094-10.324219-4.625-1.574218-4.128906.5-8.753906 4.628906-10.324219zm0 0"/><path d="m203.25 316.171875 12.523438-27.609375c1.824218-4.027344 6.566406-5.808594 10.589843-3.984375 4.023438 1.824219 5.808594 6.566406 3.984375 10.589844l-12.523437 27.613281c-1.824219 4.023438-6.566407 5.808594-10.589844 3.984375-4.023437-1.828125-5.808594-6.566406-3.984375-10.59375zm0 0"/><path d="m309.222656 244.8125 29.910156-11.304688c4.132813-1.5625 8.75.523438 10.3125 4.65625 1.5625 4.132813-.519531 8.75-4.652343 10.3125l-29.914063 11.304688c-4.132812 1.5625-8.746094-.523438-10.308594-4.65625s.519532-8.75 4.652344-10.3125zm0 0"/><path d="m287.632812 213.660156 31.605469-11.082031c4.167969-1.460937 8.734375.734375 10.199219 4.902344 1.460938 4.171875-.734375 8.738281-4.90625 10.203125l-31.605469 11.078125c-4.167969 1.464843-8.734375-.730469-10.199219-4.902344-1.460937-4.171875.734376-8.738281 4.90625-10.199219zm0 0"/></g><path d="m208.835938 79.285156c-23.316407-44.925781-68.730469-74.089844-119.28125-76.601562l-55.566407-2.6484378c-9.007812-.4296872-17.777343 2.9609378-24.152343 9.3359378-6.375 6.378906-9.7656255 15.148437-9.335938 24.152344l2.648438 55.5625c2.253906 47.382812 34.734374 95.644531 75.277343 120.664062 2.183594-1.472656 4.335938-3.007812 6.648438-4.273438l43.3125-23.578124-6.273438-5.300782-20.984375-17.761718-1.253906-1.054688c-10.105469-7.785156-17.628906-18.433594-21.601562-30.554688-3.09375-12.144531-4.367188-24.683593-3.78125-37.207031 0-8.835937 7.160156-16 16-16 12.496093-.578125 25.011718.6875 37.140624 3.761719 12.144532 3.960938 22.8125 11.488281 30.617188 21.597656l18.816406 22.242188zm0 0" fill="#1a6b01"/><path d="m79.234375 78.773438c3.125-3.125 3.125-8.1875 0-11.3125l-4.710937-4.6875c-1.777344-1.773438-2.617188-4.277344-2.273438-6.761719l5.160156-37.175781c.609375-4.375-2.449218-8.417969-6.824218-9.023438-4.375-.609375-8.414063 2.449219-9.023438 6.824219l-1.824219 13.207031c-.414062 3.015625-2.5 5.535156-5.386719 6.5-2.886718.964844-6.066406.210938-8.214843-1.949219l-19.589844-19.621093c-3.125-3.125-8.1875-3.125-11.3125 0-3.121094 3.121093-3.121094 8.1875 0 11.3125l19.601563 19.597656c2.15625 2.144531 2.910156 5.328125 1.945312 8.214844-.964844 2.882812-3.484375 4.972656-6.5 5.386718l-13.207031 1.824219c-4.375.605469-7.429688 4.648437-6.824219 9.023437.609375 4.375 4.648438 7.429688 9.023438 6.824219l37.175781-5.160156c2.484375-.34375 4.988281.496094 6.761719 2.269531l4.710937 4.714844c3.125 3.121094 8.191406 3.117188 11.3125-.007812zm0 0" fill="#175e01"/><path d="m122.699219 68.410156 14.367187-36.730468c1.609375-4.113282 6.25-6.144532 10.363282-4.535157 4.117187 1.609375 6.148437 6.25 4.539062 10.363281l-14.371094 36.730469c-1.609375 4.113281-6.25 6.144531-10.363281 4.535157-4.117187-1.609376-6.144531-6.25-4.535156-10.363282zm0 0" fill="#175e01"/><path d="m86.910156 63.742188 14.28125-44.964844c1.339844-4.210938 5.835938-6.539063 10.046875-5.203125 4.210938 1.339843 6.539063 5.835937 5.203125 10.046875l-14.28125 44.960937c-1.335937 4.210938-5.835937 6.542969-10.046875 5.203125-4.210937-1.335937-6.539062-5.832031-5.203125-10.042968zm0 0" fill="#175e01"/><path d="m19.175781 99.53125 45.140625-13.292969c4.238282-1.25 8.683594 1.175781 9.933594 5.414063v.007812c1.25 4.238282-1.175781 8.683594-5.414062 9.933594l-45.136719 13.292969c-4.238281 1.246093-8.6875-1.175781-9.9375-5.414063v-.007812c-1.25-4.238282 1.175781-8.6875 5.414062-9.933594zm0 0" fill="#175e01"/><path d="m154.453125 90.402344 12.878906-35.800782c1.496094-4.160156 6.078125-6.316406 10.234375-4.820312 4.160156 1.492188 6.316406 6.078125 4.820313 10.234375l-12.875 35.800781c-1.496094 4.160156-6.078125 6.316406-10.238281 4.820313-4.15625-1.492188-6.3125-6.078125-4.820313-10.234375zm0 0" fill="#175e01"/><path d="m33.207031 139.40625 35.386719-16.507812c4.003906-1.867188 8.765625-.132813 10.632812 3.871093 1.867188 4.003907.136719 8.761719-3.867187 10.632813l-35.390625 16.503906c-4.003906 1.867188-8.761719.136719-10.628906-3.867188-1.867188-4.003906-.136719-8.765624 3.867187-10.632812zm0 0" fill="#175e01"/><path d="m55.828125 167.761719 34.957031-13.503907c4.121094-1.59375 8.75.457032 10.34375 4.578126 1.59375 4.121093-.457031 8.753906-4.578125 10.34375l-34.953125 13.507812c-4.121094 1.589844-8.753906-.457031-10.347656-4.578125-1.589844-4.121094.457031-8.753906 4.578125-10.347656zm0 0" fill="#175e01"/><path d="m128.386719 181.898438-43.3125 23.578124c-3.546875 1.933594-6.945313 4.121094-10.175781 6.542969l-10.0625 7.554688c-26.1875 19.640625-41.601563 50.464843-41.601563 83.199219v32c0 13.253906 10.746094 24 24 24h32c32.734375 0 63.558594-15.414063 83.199219-41.601563l44.058594-58.75zm0 0" fill="#1d7801"/><path d="m135.738281 257.582031 5.152344-5.152343-11.3125-11.3125-5.238281 5.238281-65.113282-8c-4.386718-.535157-8.375 2.582031-8.910156 6.96875-.539062 4.382812 2.578125 8.371093 6.957032 8.910156l52.703124 6.472656-6.863281 6.867188c-1.746093 1.742187-4.199219 2.585937-6.648437 2.277343l-50.710938-6.335937c-4.382812-.546875-8.378906 2.5625-8.925781 6.945313-.554687 4.386718 2.554687 8.386718 6.941406 8.933593l42.242188 5.28125-6.609375 6.609375c-1.828125 1.828125-4.425782 2.65625-6.976563 2.230469l-32-5.328125c-4.355469-.714844-8.46875 2.230469-9.191406 6.585938-.726563 4.359374 2.21875 8.480468 6.574219 9.207031l9.441406 1.601562c2.957031.492188 5.386719 2.59375 6.300781 5.445313.914063 2.851562.160157 5.976562-1.957031 8.097656l-15.664062 15.648438c-3.121094 3.121093-3.121094 8.1875 0 11.3125 3.125 3.121093 8.1875 3.121093 11.3125 0l15.664062-15.664063c2.121094-2.117187 5.246094-2.871094 8.097656-1.957031 2.855469.917968 4.957032 3.351562 5.445313 6.308594l1.601562 9.4375c.734375 4.34375 4.839844 7.273437 9.183594 6.5625 4.359375-.726563 7.304687-4.851563 6.574219-9.210938l-5.324219-32c-.429687-2.546875.402344-5.144531 2.230469-6.972656l6.71875-6.722656 5.601562 42.234374c.578125 4.378907 4.601563 7.460938 8.984375 6.878907 4.375-.585938 7.453125-4.605469 6.871094-8.984375l-6.703125-50.464844c-.328125-2.464844.511719-4.941406 2.269531-6.703125l7.203125-7.199219 7.6875 51.945313c.648438 4.367187 4.71875 7.382812 9.085938 6.734375 4.371094-.648438 7.386718-4.710938 6.746094-9.082032zm0 0" fill="#186301"/><path d="m351.234375 86.773438c.726563-4.359376-2.21875-8.484376-6.574219-9.210938l-9.425781-1.574219c-2.953125-.496093-5.382813-2.597656-6.296875-5.449219-.910156-2.851562-.15625-5.976562 1.960938-8.09375l15.648437-15.671874c3.117187-3.125 3.117187-8.183594 0-11.304688-3.125-3.117188-8.179687-3.117188-11.304687 0l-15.671876 15.671875c-2.121093 2.121094-5.253906 2.878906-8.109374 1.957031-2.859376-.921875-4.957032-3.363281-5.441407-6.324218l-1.601562-9.449219c-.738281-4.339844-4.839844-7.265625-9.183594-6.550781-4.359375.726562-7.304687 4.847656-6.574219 9.207031l5.328125 32c.425781 2.550781-.40625 5.148437-2.234375 6.976562l-6.894531 6.894531-6.121094-42.238281c-.632812-4.371093-4.691406-7.402343-9.0625-6.769531-4.371093.636719-7.402343 4.691406-6.769531 9.066406l7.265625 50.09375c.359375 2.496094-.476563 5.015625-2.257813 6.800782l-7.0625 7.0625-7.601562-52c-.640625-4.363282-4.695312-7.382813-9.0625-6.75-4.371094.636718-7.394531 4.695312-6.761719 9.0625l9.320313 63.808593-5.160156 5.160157 11.3125 11.3125 5.167968-5.167969 63.953125 9.160156c4.367188.621094 8.417969-2.410156 9.046875-6.777344.628906-4.371093-2.40625-8.425781-6.777344-9.054687l-52.085937-7.464844 7.03125-7.097656c1.769531-1.769532 4.269531-2.613282 6.753906-2.269532l50.316407 6.984376c4.375.601562 8.410156-2.453126 9.019531-6.824219.601562-4.375-2.453125-8.410157-6.824219-9.015625l-42.234375-5.855469 6.800781-6.800781c1.828125-1.828125 4.425782-2.660156 6.976563-2.234375l32 5.328125c4.359375.71875 8.476562-2.238282 9.191406-6.597656zm0 0" fill="#186301"/><path d="m181.785156 244.371094 36.335938 42.9375c22.402344 26.496094 43.898437 28.480468 74.113281 28.480468 13.253906 0 24-10.746093 24-24 0-30.214843-1.984375-51.695312-28.472656-74.113281l-42.925781-36.351562-57.539063-60-22.933594-27.113281c-22.226562-26.253907-43.671875-28.222657-73.863281-28.222657-13.257812 0-24 10.746094-24 24 0 30.191407 1.964844 51.640625 28.230469 73.863281l42.902343 36.367188zm0 0" fill="#2f8504"/><path d="m175.523438 163.75-11.359376-11.363281c-2.148437-2.148438-2.808593-5.371094-1.679687-8.191407l9.359375-23.398437c1.558594-3.894531-.335938-8.316406-4.234375-9.871094l-.75-.304687c-3.894531-1.558594-8.316406.335937-9.871094 4.230468l-4.402343 10.984376c-.949219 2.371093-3.023438 4.105468-5.523438 4.617187-2.503906.515625-5.09375-.261719-6.898438-2.066406-2.148437-2.148438-2.808593-5.371094-1.679687-8.191407l9.359375-23.398437c1.558594-3.894531-.335938-8.316406-4.234375-9.871094l-.75-.304687c-3.894531-1.558594-8.316406.335937-9.871094 4.230468l-4.402343 10.984376c-.949219 2.371093-3.023438 4.105468-5.523438 4.617187-2.503906.515625-5.09375-.261719-6.898438-2.066406l-25.90625-25.902344c-2.964843-2.960937-7.769531-2.960937-10.734374 0l-.578126.574219c-2.957031 2.96875-2.957031 7.769531 0 10.738281l25.890626 25.902344c1.800781 1.808593 2.578124 4.398437 2.0625 6.898437-.511719 2.5-2.246094 4.578125-4.617188 5.527344l-10.984375 4.398438c-3.894531 1.558593-5.789063 5.976562-4.230469 9.871093l.304688.753907c1.554687 3.894531 5.976562 5.792968 9.871094 4.230468l23.398437-9.359375c2.824219-1.125 6.042969-.464843 8.195313 1.679688 1.800781 1.808593 2.578124 4.398437 2.0625 6.898437-.511719 2.5-2.246094 4.578125-4.617188 5.527344l-10.984375 4.398438c-3.894531 1.558593-5.789063 5.976562-4.230469 9.871093l.304688.753907c1.554687 3.894531 5.976562 5.792968 9.871094 4.230468l23.398437-9.359375c2.824219-1.125 6.042969-.464843 8.195313 1.679688l11.359374 11.359375c2.964844 2.960937 7.769532 2.960937 10.734376 0l.578124-.574219c2.964844-2.960937 2.96875-7.765625.015626-10.734375zm0 0" fill="#1d7801"/><path d="m303.523438 291.75-25.890626-25.90625c-1.800781-1.804688-2.578124-4.398438-2.0625-6.898438.511719-2.5 2.246094-4.574218 4.617188-5.523437l10.984375-4.402344c3.894531-1.554687 5.789063-5.976562 4.230469-9.871093l-.304688-.753907c-1.554687-3.894531-5.976562-5.789062-9.871094-4.230469l-23.398437 9.359376c-2.824219 1.128906-6.042969.46875-8.195313-1.679688-1.800781-1.804688-2.578124-4.398438-2.0625-6.898438.511719-2.5 2.246094-4.574218 4.617188-5.523437l10.984375-4.402344c3.894531-1.554687 5.789063-5.976562 4.230469-9.871093l-.304688-.753907c-1.554687-3.894531-5.976562-5.789062-9.871094-4.230469l-23.398437 9.359376c-2.824219 1.128906-6.042969.46875-8.195313-1.679688l-11.359374-11.359375c-2.964844-2.960937-7.769532-2.960937-10.734376 0l-.578124.574219c-2.957032 2.96875-2.957032 7.769531 0 10.738281l11.363281 11.359375c2.144531 2.148438 2.804687 5.371094 1.679687 8.191406l-9.363281 23.402344c-1.558594 3.894531.339844 8.3125 4.234375 9.871094l.75.304687c3.894531 1.558594 8.316406-.335937 9.875-4.234375l4.398438-10.984375c.949218-2.367187 3.023437-4.101562 5.527343-4.617187 2.5-.511719 5.089844.261718 6.898438 2.066406 2.144531 2.148438 2.804687 5.371094 1.679687 8.191406l-9.363281 23.402344c-1.558594 3.894531.339844 8.3125 4.234375 9.871094l.75.304687c3.894531 1.558594 8.316406-.335937 9.875-4.234375l4.398438-10.984375c.949218-2.367187 3.023437-4.101562 5.527343-4.617187 2.5-.511719 5.089844.261718 6.898438 2.066406l25.902343 25.902344c2.964844 2.960937 7.769532 2.960937 10.734376 0l.578124-.574219c2.953126-2.972656 2.949219-7.773437-.015624-10.734375zm0 0" fill="#1d7801"/><path d="m252.890625 129.117188c-16.398437-16.410157-50.785156-5.800782-65.945313 9.367187-9.796874 9.871094-13.726562 24.144531-10.359374 37.640625-13.496094-3.367188-27.769532.558594-37.640626 10.359375-15.160156 15.199219-25.773437 49.535156-9.367187 65.945313 6.152344 5.691406 14.332031 8.667968 22.703125 8.261718 16.070312-.4375 31.433594-6.691406 43.242188-17.597656 9.816406-9.871094 13.757812-24.148438 10.398437-37.65625 3.117187.792969 6.320313 1.214844 9.535156 1.253906 10.539063.015625 20.648438-4.15625 28.105469-11.597656 15.121094-15.203125 25.734375-49.570312 9.328125-65.976562zm0 0" fill="#359605"/><path d="m207.234375 163.457031 12.6875-12.6875c3.125-3.125 8.191406-3.125 11.316406 0 3.121094 3.125 3.121094 8.191407 0 11.316407l-12.691406 12.6875c-3.121094 3.125-8.1875 3.125-11.3125 0s-3.125-8.191407 0-11.316407zm0 0" fill="#2f8504"/><path d="m151.234375 219.453125 12.6875-12.6875c3.125-3.125 8.191406-3.125 11.316406 0 3.121094 3.125 3.121094 8.191406 0 11.316406l-12.691406 12.6875c-3.121094 3.125-8.1875 3.125-11.3125 0s-3.125-8.191406 0-11.316406zm0 0" fill="#2f8504"/><path d="m191.234375 206.773438c7.988281.007812 14.757813-5.875 15.863281-13.785157 1.109375-7.90625-3.785156-15.421875-11.46875-17.605469-7.683594-2.183593-15.800781 1.632813-19.019531 8.941407-2.175781 4.945312-1.710937 10.65625 1.238281 15.183593 2.949219 4.523438 7.984375 7.257813 13.386719 7.265626zm0 0" fill="#4ca50f"/></svg>