<svg viewBox="0 -33 461.32974 461" xmlns="http://www.w3.org/2000/svg"><path d="m276.625 106.871094-13.089844-12.421875c-12.433594-12.167969-29.019531-19.164063-46.414062-19.578125h-4.945313c-10.320312 0-20.601562 1.363281-30.566406 4.050781l-48.984375 13.191406-37.910156.367188c-31.453125.421875-60.699219 16.222656-78.292969 42.296875-17.59375 26.074218-21.296875 59.109375-9.917969 88.429687l44.34375 114.242188c13.695313 35.28125 52.367188 53.933593 88.503906 42.695312l24.539063-7.632812c7.789063-2.421875 15.902344-3.640625 24.0625-3.605469l14.625-.183594v-.082031c-5.347656-7.152344-9.125-15.351563-11.089844-24.0625l-33.597656-149.3125c-5.746094-25.566406 1.398437-52.328125 19.117187-71.632813 17.722657-19.304687 43.773438-28.707031 69.738282-25.167968zm0 0" fill="#bd0000"/><path d="m52.625 146.871094h48c13.253906 0 24 10.746094 24 24 0 13.257812-10.746094 24-24 24h-48c-13.253906 0-24-10.742188-24-24 0-13.253906 10.746094-24 24-24zm0 0" fill="#c90000"/><path d="m289.234375 105.191406-42.464844-6.75c-25.964843-3.539062-52.015625 5.863282-69.738281 25.167969-17.71875 19.304687-24.859375 46.0625-19.117188 71.632813l33.597657 149.3125c7.386719 32.820312 38.917969 54.320312 72.167969 49.207031l32.800781-5.039063c8.066406-1.242187 16.273437-1.242187 24.335937 0l32.800782 5.039063c33.25 5.113281 64.785156-16.386719 72.167968-49.207031l33.601563-149.3125c5.742187-25.570313-1.402344-52.328126-19.121094-71.632813-17.722656-19.304687-43.773437-28.707031-69.738281-25.167969l-50.398438 6.871094zm0 0" fill="#5fa819"/><path d="m228.800781 206.359375-21.917969-10.582031c-8.71875-4.203125-14.257812-13.027344-14.257812-22.703125 0-8.679688 4.460938-16.746094 11.808594-21.359375 7.347656-4.613282 16.554687-5.125 24.367187-1.355469 50.59375 24.425781 109.40625 25.179687 160.609375 2.058594l7.199219-3.257813c7.894531-3.554687 17.054687-2.863281 24.328125 1.832032 7.273438 4.699218 11.667969 12.765624 11.671875 21.425781 0 10.023437-5.867187 19.121093-15 23.253906l-28.183594 12.746094c-51.207031 23.125-110.027343 22.371093-160.625-2.058594zm0 0" fill="#66b51b"/><path d="m348.625 378.304688c-.015625-3.976563 2.925781-7.347657 6.871094-7.863282 8.976562-1.128906 17.542968-4.425781 24.960937-9.601562 13.082031-9.664063 21.378907-24.484375 22.792969-40.6875l.671875-6.136719c.25-2.308594 1.507813-4.390625 3.433594-5.691406 1.929687-1.296875 4.332031-1.679688 6.566406-1.042969 3.695313 1.054688 6.09375 4.617188 5.679687 8.441406l-.695312 6.398438c-2.503906 33.277344-28.148438 60.160156-61.273438 64.222656-2.296874.292969-4.609374-.425781-6.335937-1.964844-1.726563-1.542968-2.703125-3.757812-2.671875-6.074218zm0 0" fill="#66b51b"/><path d="m123.882812 131.25 1.253907-13.28125c1.128906-15.339844-2.070313-30.6875-9.230469-44.296875-8.199219-14.96875-19.039062-28.328125-32-39.429687-1.835938-1.613282-2.828125-3.980469-2.6875-6.417969s1.398438-4.675781 3.40625-6.0625l28.65625-20.144531c3.617188-2.539063 8.605469-1.664063 11.144531 1.953124l7.472657 10.621094c17.367187 25.675782 24.476562 56.929688 19.925781 87.59375l-3.703125 27.09375zm0 0" fill="#553b25"/><path d="m142.226562 138.871094c-10.496093.335937-13.523437.480468-17.328124.425781l-25.65625-.425781c-4.417969-.074219-7.941407-3.714844-7.867188-8.132813.078125-4.417969 3.714844-7.9375 8.128906-7.867187l25.679688.417968c9.039062.175782 18.039062-1.175781 26.625-4l10.738281-3.480468c4.199219-1.363282 8.710937.933594 10.078125 5.136718 1.363281 4.203126-.933594 8.714844-5.136719 10.078126l-22.96875 7.457031c-.742187.238281-1.515625.367187-2.292969.390625zm0 0" fill="#a60000"/><path d="m324.5625 144.21875-3.203125-12.945312c-3.390625-15.003907-2.503906-30.660157 2.5625-45.183594 5.871094-16.015625 14.601563-30.835938 25.757813-43.738282 1.582031-1.859374 2.210937-4.347656 1.714843-6.738281-.5-2.390625-2.074219-4.417969-4.265625-5.492187l-31.335937-15.671875c-3.953125-1.972657-8.753907-.367188-10.726563 3.582031l-5.808594 11.609375c-13.367187 27.976563-15.761718 59.945313-6.703124 89.601563l7.679687 26.238281zm0 0" fill="#3d7606"/><path d="m308.625 152.703125c-9.132812 0-18.25-.757813-27.257812-2.261719l-14.167969-2.402344c-4.339844-.726562-7.277344-4.820312-6.574219-9.167968.726562-4.355469 4.847656-7.300782 9.207031-6.574219l37.480469 6.246094c.867188.144531 1.753906.144531 2.625 0l37.480469-6.246094c4.359375-.726563 8.480469 2.21875 9.207031 6.574219.726562 4.359375-2.21875 8.484375-6.574219 9.210937l-14.167969 2.398438c-9.011718 1.488281-18.125 2.234375-27.257812 2.222656zm0 0" fill="#4b9107"/><path d="m187.953125 368.90625 14.625-.183594v-.082031c-1.113281-1.496094-2.136719-3.070313-3.128906-4.671875-.601563-.984375-1.152344-2-1.703125-3.015625-.976563-1.78125-1.867188-3.617187-2.671875-5.503906-.359375-.855469-.714844-1.703125-1.042969-2.578125-1.039062-2.699219-1.890625-5.472656-2.542969-8.292969l-27.664062-122.953125-4.191407 100.800781c-.730468 17.257813 5.019532 34.167969 16.121094 47.40625 4.035156-.621093 8.113282-.933593 12.199219-.925781zm0 0" fill="#a60000"/></svg>