<svg viewBox="0 -12 464 464" xmlns="http://www.w3.org/2000/svg"><path d="m208 0c-53.019531 0-96 42.980469-96 96 0-53.019531-42.980469-96-96-96h-16v16c0 53.019531 42.980469 96 96 96h32c6.042969-.015625 12.066406-.601562 18-1.742188 6.398438-2.195312 12.902344-4.210937 19.625-5.929687 35.402344-15.082031 58.378906-49.847656 58.375-88.328125v-16zm0 0" fill="#3d7606"/><path d="m112 120c-2.121094 0-4.15625-.84375-5.65625-2.34375l-50.34375-50.34375c-3.125-3.125-3.125-8.1875 0-11.3125s8.1875-3.125 11.3125 0l39.03125 39.03125c3.125 3.125 8.1875 3.125 11.3125 0l63.03125-63.03125c3.125-3.125 8.1875-3.125 11.3125 0s3.125 8.1875 0 11.3125l-74.34375 74.34375c-1.5 1.5-3.535156 2.34375-5.65625 2.34375zm0 0" fill="#468707"/><path d="m395.457031 148c40.675781-12.140625 68.546875-49.550781 68.542969-92v-16h-16c-45.992188.015625-85.507812 32.648438-94.222656 77.808594" fill="#3d7606"/><path d="m376 116.6875 60.683594-60.6875c3.125-3.125 8.191406-3.125 11.316406 0 3.121094 3.125 3.121094 8.191406 0 11.316406l-60.6875 60.683594c-3.125 3.125-8.191406 3.125-11.3125 0-3.125-3.121094-3.125-8.1875 0-11.3125zm0 0" fill="#468707"/><path d="m423.726562 260.863281c3.28125-7.699219 10.792969-12.742187 19.160157-12.863281h.410156c11.433594 0 20.703125-9.269531 20.703125-20.703125v-6.59375c0-11.433594-9.269531-20.703125-20.703125-20.703125h-.410156c-8.367188-.121094-15.878907-5.164062-19.160157-12.863281-24.695312-54.992188-102.054687-99.136719-191.726562-99.136719-22.394531-.003906-44.699219 2.792969-66.398438 8.328125-6.722656 1.71875-13.242187 3.734375-19.625 5.929687-50.402343 17.316407-89.542968 48.742188-105.769531 84.957032-3.273437 7.664062-10.761719 12.675781-19.09375 12.785156h-.410156c-11.433594 0-20.703125 9.269531-20.703125 20.703125v6.59375c0 11.433594 9.269531 20.703125 20.703125 20.703125h.800781c8.152344.113281 15.464844 5.039062 18.632813 12.550781 20.207031 45.394531 76.335937 83.394531 145.664062 95.425781l85.832031.742188c64.757813.679688 123.988282-36.394531 151.679688-94.933594zm0 0" fill="#f0b706"/><g fill="#ffc206"><path d="m96 184c4.417969 0 8 3.582031 8 8s-3.582031 8-8 8-8-3.582031-8-8 3.582031-8 8-8zm0 0"/><path d="m152 128c4.417969 0 8 3.582031 8 8s-3.582031 8-8 8-8-3.582031-8-8 3.582031-8 8-8zm0 0"/><path d="m224 144c4.417969 0 8 3.582031 8 8s-3.582031 8-8 8-8-3.582031-8-8 3.582031-8 8-8zm0 0"/><path d="m304 152c4.417969 0 8 3.582031 8 8s-3.582031 8-8 8-8-3.582031-8-8 3.582031-8 8-8zm0 0"/></g><path d="m256 224h-56c-4.417969 0-8 3.582031-8 8v184c0 8.835938 7.164062 16 16 16h56c4.417969 0 8-3.582031 8-8v-184c0-8.835938-7.164062-16-16-16zm0 0" fill="#ffc81f"/><path d="m379.527344 244.519531-22.398438-18.671875c-2.167968-1.804687-5.128906-2.335937-7.789062-1.398437-2.660156.941406-4.628906 3.214843-5.179688 5.984375l-38.089844 190.398437c-.949218 4.703125.261719 9.585938 3.304688 13.300781 3.039062 3.714844 7.585938 5.867188 12.386719 5.867188h46.238281c3.800781 0 7.078125-2.675781 7.839844-6.398438l25.472656-127.363281c4.601562-23.007812-3.757812-46.695312-21.785156-61.71875zm0 0" fill="#ffc81f"/><path d="m459.03125 361.527344-11.144531-66.839844c-.605469-3.683594-3.675781-6.457031-7.398438-6.6875-3.734375-.265625-7.140625 2.125-8.160156 5.726562l-40 136c-.957031 3.273438.265625 6.789063 3.042969 8.765626 2.777344 1.972656 6.5 1.972656 9.277344-.003907l31.945312-22.816406c17.136719-12.335937 25.828125-33.300781 22.4375-54.144531zm0 0" fill="#ffc81f"/><path d="m345.542969 227.265625-73.542969 100.292969v96.441406c-.019531 1.953125-.757812 3.828125-2.078125 5.265625l.054687.046875 44.421876-49.9375 29.761718-148.976562c.242188-1.136719.734375-2.203126 1.441406-3.125zm0 0" fill="#f9eda8"/><path d="m192 232c0-1.042969.210938-2.078125.617188-3.039062l-6.882813 16.71875c-31.28125 75.597656-86.757813 138.683593-157.734375 179.375-3.152344 1.804687-4.695312 5.503906-3.753906 9.015624.9375 3.507813 4.121094 5.941407 7.753906 5.929688.335938 0 .667969-.023438 1-.0625l59.710938-7.457031c37.945312-4.855469 73.03125-22.710938 99.289062-50.527344zm0 0" fill="#f9eda8"/><path d="m434.34375 290.34375-37.3125 37.3125-21.191406 105.945312c-.253906 1.164063-.773438 2.261719-1.511719 3.199219l.070313.054688 26.082031-34.777344 31.847656-108.277344c.394531-1.289062 1.105469-2.460937 2.070313-3.402343zm0 0" fill="#f9eda8"/></svg>