<svg viewBox="0 0 461.43927 461" xmlns="http://www.w3.org/2000/svg"><path d="m461.4375 16.21875-16-16-150.734375 121.265625-57.253906 134.710937 223.988281-111.976562v-24l-163.894531 52.449219zm0 0" fill="#8eb353"/><path d="m221.4375 208.21875-198.085938 154.402344c-15.851562 13.199218-22.742187 34.308594-17.726562 54.320312.742188 2.886719 1.730469 5.707032 2.949219 8.429688l-6.976563 9.296875c-2.386718 3.183593-2.070312 7.640625.746094 10.457031l13.441406 13.4375c3.121094 3.125 8.1875 3.125 11.308594 0l6.691406-6.6875c22.234375 11.398438 49.414063 5.734375 65.246094-13.597656l140.40625-166.921875c3.96875-4.722657 7.003906-10.148438 8.953125-16l5.046875-15.136719c10.632812-31.90625 24.535156-62.628906 41.480469-91.679688l20-34.320312-70.230469 56.183594zm0 0" fill="#c3e68c"/><path d="m180.382812 240.21875-157.03125 122.402344c-15.851562 13.199218-22.742187 34.308594-17.726562 54.320312.742188 2.886719 1.730469 5.707032 2.949219 8.429688l-6.976563 9.296875c-2.386718 3.183593-2.070312 7.640625.746094 10.457031l13.441406 13.4375c3.121094 3.125 8.1875 3.125 11.308594 0l6.691406-6.6875c22.234375 11.398438 49.414063 5.734375 65.246094-13.597656l45.078125-53.601563c33.65625-40.015625 47.035156-93.289062 36.273437-144.457031zm0 0" fill="#e7fab4"/><path d="m314.941406 114.21875 66.496094-114h-32l-104.726562 170.183594zm0 0" fill="#9cc45b"/><path d="m103.289062 374.773438c.917969-13.855469-6.378906-26.957032-18.640624-33.464844-12.261719-6.507813-27.203126-5.214844-38.160157 3.3125l-23.136719 18c-15.851562 13.199218-22.742187 34.308594-17.726562 54.320312.742188 2.886719 1.730469 5.707032 2.949219 8.429688l-6.976563 9.296875c-2.386718 3.183593-2.070312 7.640625.746094 10.457031l13.441406 13.4375c3.121094 3.125 8.1875 3.125 11.308594 0l6.691406-6.6875c14.550782 7.488281 31.757813 7.78125 46.558594.800781 11.421875-5.46875 18.964844-16.71875 19.695312-29.359375zm0 0" fill="#edfacb"/></svg>