<svg viewBox="-68 0 479 479.99215" xmlns="http://www.w3.org/2000/svg"><path d="m220.125 109.335938v-13.335938c0-26.507812-21.488281-48-48-48-26.507812 0-48 21.492188-48 48v13.335938l18.074219 12.046874c5.222656-11.605468 17.257812-18.59375 29.925781-17.382812 24 0 29.328125 16.457031 29.328125 16.457031zm0 0" fill="#d9ca1f"/><path d="m276.789062 242.175781c-.347656-9.972656-3.816406-19.585937-9.917968-27.480469l-48.601563-60.519531c8.105469 52.976563 7.738281 106.90625-1.085937 159.769531l.253906 7.894532 22.6875 93.945312c.871094 3.589844 4.082031 6.117188 7.777344 6.117188 3.695312 0 6.910156-2.527344 7.777344-6.117188l23.808593-98.671875.0625-.59375zm0 0" fill="#eebc08"/><path d="m146.640625 114.726562-20.625-13.75c-5.988281-3.992187-13.789063-3.992187-19.777344 0-12.707031 8.46875-24.742187 17.90625-36 28.222657l-30.832031 28.273437c-32.1875 29.507813-45.804688 74.167969-35.558594 116.617188l40.503906 167.78125c.863282 3.59375 4.078126 6.128906 7.773438 6.128906.265625 0 .539062 0 .800781-.039062 3.980469-.398438 7.054688-3.671876 7.199219-7.664063l7.335938-198.121094c.339843-9.914062 3.773437-19.476562 9.816406-27.34375l71.203125-88.433593c1.40625-1.75 2.011719-4.011719 1.671875-6.230469-.34375-2.222657-1.605469-4.195313-3.472656-5.441407zm0 0" fill="#f3d554"/><path d="m304.839844 157.472656-32.800782-30.105468c-9.914062-9.089844-20.515624-17.402344-31.703124-24.863282-7.324219-4.878906-16.816407-5.046875-24.304688-.433594l-18.777344 11.53125c-1.953125 1.203126-3.296875 3.1875-3.6875 5.449219s.210938 4.582031 1.648438 6.375l71.65625 89.230469c6.101562 7.894531 9.570312 17.507812 9.917968 27.480469l7.335938 198.160156c.148438 3.992187 3.222656 7.265625 7.203125 7.664063.269531 0 .535156.039062.796875.039062 3.695312-.003906 6.90625-2.535156 7.769531-6.128906l40.511719-167.792969c10.242188-42.445313-3.378906-87.101563-35.566406-116.605469zm0 0" fill="#f3d554"/><path d="m133.894531 347.710938c-15.117187-63.226563-17.890625-128.777344-8.167969-193.054688l-48.414062 60.175781c-.136719.167969-.234375.367188-.363281.542969 1.84375 28.425781 6.105469 56.636719 12.746093 84.335938l30.429688 126.160156c.871094 3.589844 4.082031 6.121094 7.777344 6.121094 3.695312 0 6.910156-2.53125 7.777344-6.121094l8.542968-35.398438zm0 0" fill="#eebc08"/><path d="m230.359375 26.464844c-8.722656 8.957031-20.722656 13.96875-33.222656 13.878906l-17.011719-.144531v-40.199219h-16v40.0625l-7.40625-.0625c-13.8125.011719-27.125-5.179688-37.28125-14.542969l-10.832031 11.757813c13.101562 12.09375 30.285156 18.800781 48.113281 18.785156l40.199219.34375h.800781c16.660156-.023438 32.59375-6.8125 44.144531-18.816406zm0 0" fill="#95be1b"/><path d="m214.621094 131.664062c-4.0625-20.246093-21.84375-34.8125-42.496094-34.8125-20.648438 0-38.429688 14.566407-42.492188 34.8125-14.183593 71.480469-12.730468 145.183594 4.261719 216.046876l30.457031 126.160156c.867188 3.589844 4.082032 6.121094 7.773438 6.121094 3.695312 0 6.910156-2.53125 7.777344-6.121094l30.457031-126.160156c16.992187-70.863282 18.445313-144.566407 4.261719-216.046876zm0 0" fill="#f3d554"/></svg>