<svg viewBox="0 -8 488.16 488" xmlns="http://www.w3.org/2000/svg"><path d="m154.304688 118.808594c7.203124-8.617188 11.144531-19.496094 11.136718-30.730469 0-48.597656-39.398437-88-88-88h-8c-26.511718 0-48 21.492187-48 48 0 48.601563 39.398438 88 88 88h8c14.242188.011719 27.753906-6.316406 36.863282-17.269531zm0 0" fill="#3d7606"/><path d="m197.441406 104.078125h-8c-26.511718 0-48 21.492187-48 48 0 15.914063 4.347656 31.527344 12.566406 45.152344l19.433594-5.152344h16l16 8 16-56 19.09375-28.679687c-13.148437-7.425782-27.992187-11.324219-43.09375-11.320313zm0 0" fill="#3d7606"/><path d="m45.445312 32.082031c2.753907-3.457031 7.785157-4.027343 11.242188-1.273437l156.699219 124.832031c3.457031 2.753906 4.023437 7.785156 1.273437 11.242187-2.753906 3.457032-7.789062 4.027344-11.242187 1.273438l-156.699219-124.832031c-3.457031-2.753907-4.027344-7.785157-1.273438-11.242188zm0 0" fill="#478a07"/><path d="m479.945312 175.414062c-1.464843-3.695312-2.921874-7.351562-4.105468-11-1.238282-3.820312-2.253906-7.75-3.28125-11.6875-2.144532-10.992187-6.355469-21.476562-12.414063-30.894531-7.101562-8.675781-15.789062-15.917969-25.601562-21.34375-3.429688-2.191406-6.847657-4.367187-10.078125-6.710937-3.234375-2.34375-6.25-4.867188-9.351563-7.441406-8.214843-7.710938-17.839843-13.765626-28.34375-17.832032-10.746093-2.792968-21.917969-3.539062-32.9375-2.199218-8.257812.484374-16.539062.484374-24.800781 0-11.015625-1.339844-22.1875-.59375-32.925781 2.199218-10.507813 4.066406-20.136719 10.121094-28.351563 17.832032-3.105468 2.574218-6.1875 5.128906-9.355468 7.441406-3.167969 2.3125-6.65625 4.527344-10.09375 6.71875-9.796876 5.421875-18.472657 12.660156-25.5625 21.328125-6.050782 9.425781-10.265626 19.917969-12.414063 30.910156-1.023437 3.929687-2.039063 7.859375-3.28125 11.671875-1.175781 3.625-2.605469 7.257812-4.054687 10.921875-3.1875 7.390625-5.632813 15.082031-7.296876 22.960937l7.863282 1.414063c8 6.816406 14.402344 16.800781 22.632812 22.746094 11.535156 8.390625 29.296875 10.949219 37.6875 22.488281 8.394532 11.535156 5.320313 29.0625 9.777344 42.78125 4.289062 13.242188 17.222656 25.6875 17.222656 40.359375-.054687 2.675781-.488281 5.328125-1.285156 7.882813l-4 6.941406c3.320312 1.941406 6.832031 3.535156 10.476562 4.753906 6.925782 2.078125 14.148438 2.988281 21.371094 2.703125v.054687c-.324218 21.148438 15.4375 39.09375 36.445313 41.507813 1.160156.101563 2.3125.15625 3.472656.15625 10.625.023437 20.816406-4.183594 28.335937-11.683594 7.519532-7.503906 11.746094-17.691406 11.746094-28.316406-.039062-5.414063 2.519532-10.519531 6.886719-13.726563 3.710937-2.671874 7.273437-5.597656 10.808594-8.535156 3.101562-2.570312 6.183593-5.121094 9.351562-7.433594s6.65625-4.527343 10.097657-6.71875c9.808593-5.417968 18.496093-12.65625 25.597656-21.328124 6.054687-9.425782 10.265625-19.917969 12.417968-30.910157 1.023438-3.929687 2.039063-7.859375 3.277344-11.671875 1.183594-3.65625 2.640625-7.3125 4.105469-11.011718 4.8125-10.253907 7.589844-21.347657 8.175781-32.664063-.597656-11.316406-3.390625-22.410156-8.214844-32.664063zm0 0" fill="#4ca50f"/><path d="m328.953125 286.398438-4-7.199219c-.574219-1.03125-1.367187-1.921875-2.320313-2.613281l-13.144531-9.457032c-.960937-.6875-1.75-1.582031-2.320312-2.617187l-7.832031-14.128907c-.574219-1.03125-1.367188-1.925781-2.328126-2.613281l-13.085937-9.410156c-.960937-.6875-1.757813-1.582031-2.328125-2.617187l-5.683594-10.253907c-2.140625-3.863281-.746094-8.726562 3.113282-10.871093 3.867187-2.144532 8.738281-.75 10.878906 3.117187l3.945312 7.113281c.570313 1.035156 1.367188 1.929688 2.328125 2.617188l13.105469 9.414062c.957031.691406 1.753906 1.582032 2.328125 2.617188l7.839844 14.136718c.566406 1.035157 1.359375 1.925782 2.320312 2.613282l13.140625 9.464844c.960938.6875 1.753906 1.578124 2.320313 2.609374l5.714843 10.296876c2.140626 3.859374.746094 8.726562-3.113281 10.871093-3.855469 2.148438-8.726562.765625-10.878906-3.089843zm0 0" fill="#3d7606"/><path d="m386.398438 216.785156c-4.410157-.253906-7.78125-4.039062-7.527344-8.449218l.542968-9.601563c.089844-1.519531-.257812-3.039063-1.007812-4.367187l-8.597656-15.328126c-.746094-1.332031-1.097656-2.851562-1.007813-4.375l1.015625-17.503906c.085938-1.527344-.261718-3.046875-1.007812-4.382812l-8.59375-15.296875c-.746094-1.332031-1.09375-2.851563-1.007813-4.375l.800781-14.203125c.253907-4.40625 4.03125-7.777344 8.441407-7.527344 4.40625.257812 7.773437 4.039062 7.519531 8.449219l-.554688 9.527343c-.085937 1.527344.265626 3.046876 1.019532 4.375l8.582031 15.296876c.75 1.335937 1.105469 2.855468 1.015625 4.382812l-1.015625 17.523438c-.089844 1.523437.257813 3.039062 1 4.375l8.609375 15.351562c.746094 1.328125 1.09375 2.84375 1.007812 4.367188l-.800781 14.234374c-.253906 4.402344-4.027343 7.773438-8.433593 7.527344zm0 0" fill="#3d7606"/><path d="m353.664062 333.984375c-3.195312-3.054687-3.308593-8.117187-.257812-11.3125l15.144531-15.824219c.949219-.992187 1.628907-2.214844 1.96875-3.542968l7.425781-28.96875c.34375-1.332032 1.023438-2.550782 1.976563-3.542969l20.636719-21.5625c.953125-.992188 1.632812-2.21875 1.976562-3.550781l7.394532-28.910157c.34375-1.335937 1.023437-2.554687 1.972656-3.554687l18-18.789063c3.058594-3.195312 8.121094-3.304687 11.3125-.25 3.195312 3.054688 3.304687 8.121094.25 11.3125l-15.105469 15.769531c-.953125.992188-1.632813 2.214844-1.96875 3.550782l-7.398437 28.871094c-.339844 1.332031-1.015626 2.554687-1.96875 3.542968l-20.648438 21.601563c-.949219.992187-1.625 2.214843-1.96875 3.542969l-7.421875 28.96875c-.34375 1.328124-1.023437 2.546874-1.96875 3.542968l-18.039063 18.855469c-3.054687 3.195313-8.121093 3.304687-11.3125.25zm0 0" fill="#3d7606"/><path d="m344.160156 231.015625-8.542968-15.65625c-.570313-1.039063-1.363282-1.941406-2.320313-2.640625l-20.898437-15.199219c-.957032-.695312-1.75-1.597656-2.320313-2.640625l-12.324219-22.640625c-.574218-1.039062-1.367187-1.941406-2.328125-2.636719l-20.859375-15.121093c-.960937-.699219-1.757812-1.605469-2.328125-2.648438l-10.222656-18.777343c-2.109375-3.878907-.675781-8.734376 3.199219-10.847657 3.882812-2.113281 8.742187-.683593 10.855468 3.199219l8.503907 15.617188c.570312 1.042968 1.363281 1.945312 2.320312 2.648437l20.847657 15.144531c.960937.695313 1.753906 1.597656 2.320312 2.640625l12.34375 22.621094c.570312 1.042969 1.363281 1.945313 2.320312 2.640625l20.898438 15.203125c.957031.695313 1.75 1.597656 2.320312 2.636719l10.292969 18.800781c2.113281 3.878906.679688 8.734375-3.199219 10.847656-1.863281 1.023438-4.058593 1.265625-6.101562.664063-2.042969-.597656-3.761719-1.984375-4.777344-3.855469zm0 0" fill="#3d7606"/><path d="m274.449219 307.097656c-3.417969-5.308594-6.242188-10.980468-8.417969-16.90625-1.789062-6.261718-2.894531-12.699218-3.304688-19.199218.019532-7.429688-1.796874-14.753907-5.285156-21.3125-5.195312-5.417969-11.65625-9.460938-18.800781-11.757813-6.046875-2.375-11.816406-5.40625-17.199219-9.042969-5.039062-3.957031-9.628906-8.460937-13.679687-13.421875-4.40625-6.140625-10.285157-11.078125-17.097657-14.351562-7.21875-1.253907-14.632812-.722657-21.601562 1.550781-6.417969 1.660156-12.996094 2.617188-19.621094 2.863281-6.640625-.230469-13.230468-1.179687-19.664062-2.832031-6.964844-2.273438-14.382813-2.804688-21.601563-1.550781-6.8125 3.273437-12.691406 8.207031-17.097656 14.351562-4.042969 4.949219-8.617187 9.4375-13.636719 13.390625-5.386718 3.636719-11.152344 6.667969-17.203125 9.042969-7.144531 2.296875-13.605469 6.339844-18.796875 11.757813-3.503906 6.558593-5.332031 13.878906-5.320312 21.3125-.40625 6.511718-1.515625 12.964843-3.304688 19.238281-2.175781 5.929687-5 11.597656-8.417968 16.90625-4.523438 6.15625-7.414063 13.363281-8.398438 20.941406.988281 7.597656 3.886719 14.820313 8.433594 20.984375 3.417968 5.308594 6.238281 10.980469 8.414062 16.90625 1.789063 6.261719 2.894532 12.699219 3.304688 19.199219-.027344 7.445312 1.789062 14.78125 5.289062 21.351562 5.195313 5.40625 11.65625 9.433594 18.796875 11.71875 6.050781 2.375 11.816407 5.40625 17.203125 9.042969 5.039063 3.957031 9.625 8.460938 13.679688 13.421875 4.40625 6.140625 10.285156 11.078125 17.09375 14.351563 7.21875 1.261718 14.636718.730468 21.601562-1.550782 6.417969-1.660156 13-2.617187 19.625-2.863281 6.636719.230469 13.230469 1.179687 19.664063 2.832031 6.960937 2.28125 14.378906 2.8125 21.597656 1.550782 6.8125-3.273438 12.695313-8.207032 17.097656-14.351563 4.042969-4.949219 8.617188-9.4375 13.640625-13.390625 5.382813-3.636719 11.152344-6.667969 17.199219-9.042969 7.140625-2.285156 13.601563-6.3125 18.800781-11.71875 3.503906-6.554687 5.328125-13.878906 5.320313-21.3125.402343-6.511719 1.511719-12.964843 3.300781-19.238281 2.175781-5.925781 5-11.597656 8.417969-16.90625 4.53125-6.167969 7.421875-13.390625 8.398437-20.984375-.984375-7.59375-3.886718-14.816406-8.429687-20.980469zm-15.914063 36.628906-3.902344 4.539063c-1.726562 2.003906-2.347656 4.730469-1.664062 7.285156l1.542969 5.746094c3.023437 11.472656-2.742188 23.441406-13.601563 28.230469l-5.445312 2.402344c-2.433594 1.054687-4.183594 3.25-4.671875 5.855468l-1.097657 5.839844c-2.121093 11.71875-12.582031 20.066406-24.480468 19.535156l-5.949219-.214844c-2.65625-.160156-5.203125 1.066407-6.738281 3.238282l-3.527344 4.800781c-4.5625 6.132813-11.761719 9.742187-19.40625 9.726563-3.890625.007812-7.71875-.941407-11.152344-2.757813l-5.25-2.785156c-2.34375-1.242188-5.152344-1.242188-7.496094 0l-5.238281 2.785156c-10.515625 5.492187-23.464843 2.546875-30.5625-6.960937l-3.527343-4.800782c-1.570313-2.128906-4.089844-3.34375-6.734376-3.246094l-5.960937.222657c-11.839844.339843-22.191406-7.921875-24.480469-19.542969l-1.09375-5.839844c-.492187-2.609375-2.246094-4.800781-4.683594-5.855468l-5.429687-2.402344c-10.863281-4.792969-16.628906-16.769532-13.601563-28.246094l1.539063-5.730469c.6875-2.558593.066406-5.292969-1.664063-7.304687l-3.890624-4.511719c-7.796876-8.976563-7.796876-22.324219 0-31.300781l3.898437-4.53125c1.722656-2.003906 2.347656-4.730469 1.664063-7.285156l-1.546876-5.746094c-3.023437-11.472656 2.746094-23.441406 13.601563-28.230469l5.449219-2.402344c2.429687-1.054687 4.179687-3.25 4.671875-5.855469l1.09375-5.839843c2.140625-11.710938 12.585937-20.046875 24.480469-19.535157l5.953124.214844c2.640626.09375 5.15625-1.117187 6.734376-3.238281l3.527343-4.800781c7.09375-9.515625 20.046875-12.46875 30.5625-6.96875l5.246094 2.785156c2.34375 1.242188 5.152344 1.242188 7.496094 0l5.242187-2.785156c10.511719-5.492188 23.460938-2.546875 30.558594 6.960937l3.527344 4.800781c1.597656 2.09375 4.101562 3.300782 6.738281 3.246094l5.957031-.222656c11.839844-.339844 22.191406 7.921875 24.480469 19.542969l1.097656 5.839843c.492188 2.609376 2.246094 4.800782 4.679688 5.855469l5.429687 2.402344c10.863282 4.792969 16.628906 16.769531 13.601563 28.246094l-1.535157 5.730469c-.691406 2.558593-.066406 5.292968 1.664063 7.304687l3.886719 4.511719c7.792968 8.972656 7.796875 22.316406.007812 31.292968zm0 0" fill="#eae7c0"/><path d="m184.6875 471.878906c-6.417969-.242187-12.792969-1.171875-19.015625-2.773437-5.308594-1.386719-10.75-2.210938-16.230469-2.464844-5.484375.253906-10.921875 1.078125-16.234375 2.464844-9.699219 3.074219-20.054687 3.46875-29.960937 1.132812-9.617188-4.019531-17.96875-10.570312-24.167969-18.957031-3.292969-4.070312-7.011719-7.777344-11.085937-11.066406-4.445313-2.929688-9.179688-5.390625-14.136719-7.335938-9.808594-3.292968-18.550781-9.15625-25.320313-16.984375-5.363281-8.789062-8.234375-18.871093-8.304687-29.167969-.316407-5.355468-1.191407-10.667968-2.605469-15.847656-1.832031-4.792968-4.164062-9.382812-6.960938-13.6875-6.128906-8.558594-9.8125-18.621094-10.664062-29.113281.84375-10.5 4.53125-20.574219 10.664062-29.140625 2.796876-4.304688 5.128907-8.894531 6.960938-13.691406 1.417969-5.179688 2.289062-10.492188 2.605469-15.855469.078125-10.292969 2.949219-20.371094 8.304687-29.160156 6.773438-7.8125 15.515625-13.664063 25.320313-16.949219 4.953125-1.925781 9.691406-4.363281 14.136719-7.273438 4.078124-3.308593 7.796874-7.039062 11.097656-11.128906 6.1875-8.398437 14.539062-14.960937 24.167968-18.992187 9.902344-2.324219 20.25-1.929688 29.949219 1.136719 5.308594 1.398437 10.75 2.234374 16.234375 2.496093 5.480469-.253906 10.921875-1.078125 16.230469-2.464843 9.703125-3.066407 20.054687-3.457032 29.960937-1.132813 9.632813 4.015625 18 10.566406 24.207032 18.957031 3.296875 4.070313 7.011718 7.777344 11.089844 11.066406 4.445312 2.90625 9.183593 5.34375 14.132812 7.269532 9.808594 3.296875 18.554688 9.160156 25.320312 16.984375 5.363282 8.789062 8.234376 18.871093 8.304688 29.167969.316406 5.359374 1.191406 10.671874 2.609375 15.847656 1.832031 4.796875 4.164063 9.382812 6.960937 13.6875 6.121094 8.582031 9.792969 18.667968 10.621094 29.175781-.84375 10.503906-4.53125 20.578125-10.664062 29.144531-2.792969 4.304688-5.128906 8.894532-6.957032 13.6875-1.417968 5.183594-2.292968 10.496094-2.609374 15.859375-.078126 10.289063-2.949219 20.367188-8.304688 29.160157-6.773438 7.8125-15.515625 13.664062-25.320312 16.949218-4.953126 1.925782-9.6875 4.363282-14.136719 7.273438-4.078125 3.308594-7.796875 7.039062-11.09375 11.128906-6.191407 8.398438-14.542969 14.960938-24.167969 18.992188-3.539062 1.109374-7.230469 1.652343-10.9375 1.605468zm-35.246094-21.238281c6.636719.230469 13.230469 1.179687 19.664063 2.832031 6.960937 2.28125 14.378906 2.8125 21.597656 1.550782 6.8125-3.273438 12.695313-8.207032 17.097656-14.351563 4.042969-4.949219 8.617188-9.4375 13.640625-13.390625 5.382813-3.636719 11.152344-6.667969 17.199219-9.042969 7.140625-2.285156 13.601563-6.3125 18.800781-11.71875 3.503906-6.554687 5.328125-13.878906 5.320313-21.3125.402343-6.511719 1.511719-12.964843 3.300781-19.238281 2.175781-5.925781 5-11.597656 8.417969-16.90625 4.53125-6.167969 7.421875-13.390625 8.398437-20.984375-.984375-7.59375-3.886718-14.816406-8.429687-20.980469-3.417969-5.308594-6.242188-10.980468-8.417969-16.90625-1.789062-6.261718-2.894531-12.699218-3.304688-19.199218.019532-7.429688-1.796874-14.753907-5.285156-21.3125-5.195312-5.417969-11.65625-9.460938-18.800781-11.757813-6.046875-2.375-11.816406-5.40625-17.199219-9.042969-5.039062-3.957031-9.628906-8.460937-13.679687-13.421875-4.40625-6.140625-10.285157-11.078125-17.097657-14.351562-7.21875-1.253907-14.632812-.722657-21.601562 1.550781-6.417969 1.660156-12.996094 2.617188-19.621094 2.863281-6.640625-.230469-13.230468-1.179687-19.664062-2.832031-6.964844-2.273438-14.382813-2.804688-21.601563-1.550781-6.8125 3.273437-12.691406 8.207031-17.097656 14.351562-4.042969 4.949219-8.617187 9.4375-13.636719 13.390625-5.386718 3.636719-11.152344 6.667969-17.203125 9.042969-7.144531 2.296875-13.605469 6.339844-18.796875 11.757813-3.503906 6.558593-5.332031 13.878906-5.320312 21.3125-.40625 6.511718-1.515625 12.964843-3.304688 19.238281-2.175781 5.929687-5 11.597656-8.417968 16.90625-4.523438 6.15625-7.414063 13.363281-8.398438 20.941406.988281 7.597656 3.886719 14.820313 8.433594 20.984375 3.417968 5.308594 6.238281 10.980469 8.414062 16.90625 1.789063 6.261719 2.894532 12.699219 3.304688 19.199219-.027344 7.445312 1.789062 14.78125 5.289062 21.351562 5.195313 5.40625 11.65625 9.433594 18.796875 11.71875 6.050781 2.375 11.816407 5.40625 17.203125 9.042969 5.039063 3.957031 9.625 8.460938 13.679688 13.421875 4.40625 6.140625 10.285156 11.078125 17.09375 14.351563 7.21875 1.261718 14.636718.730468 21.601562-1.550782 6.417969-1.660156 13-2.617187 19.625-2.863281zm0 0" fill="#3d7606"/><path d="m258.535156 343.726562c7.796875-8.976562 7.796875-22.324218 0-31.300781l-3.886718-4.515625c-1.730469-2.007812-2.355469-4.742187-1.664063-7.300781l1.535156-5.730469c3.027344-11.476562-2.738281-23.453125-13.597656-28.246094l-5.433594-2.402343c-2.433593-1.054688-4.1875-3.246094-4.679687-5.855469l-1.097656-5.839844c-2.289063-11.621094-12.640626-19.882812-24.480469-19.542968l-5.957031.222656c-2.636719.054687-5.140626-1.152344-6.738282-3.246094l-3.527344-4.800781c-7.097656-9.507813-20.046874-12.453125-30.558593-6.960938l-5.242188 2.785157c-2.34375 1.242187-5.152343 1.242187-7.496093 0l-5.246094-2.785157c-10.515625-5.5-23.46875-2.546875-30.5625 6.96875l-3.527344 4.800781c-1.578125 2.121094-4.09375 3.332032-6.734375 3.238282l-5.953125-.214844c-11.890625-.511719-22.339844 7.824219-24.480469 19.535156l-1.09375 5.839844c-.492187 2.605469-2.242187 4.800781-4.671875 5.855469l-5.449218 2.402343c-10.855469 4.789063-16.621094 16.757813-13.601563 28.230469l1.546875 5.746094c.683594 2.554687.058594 5.28125-1.664062 7.285156l-3.898438 4.53125c-7.796875 8.976563-7.796875 22.324219 0 31.300781l3.890625 4.511719c1.730469 2.011719 2.351563 4.746094 1.664063 7.304688l-1.539063 5.730469c-3.027344 11.476562 2.738281 23.453124 13.601563 28.246093l5.433593 2.402344c2.433594 1.054687 4.1875 3.246094 4.679688 5.855469l1.09375 5.839844c2.289062 11.621093 12.640625 19.882812 24.480469 19.542968l5.960937-.222656c2.644531-.097656 5.164063 1.117188 6.734375 3.246094l3.527344 4.800781c7.097656 9.503906 20.046875 12.453125 30.5625 6.960937l5.238281-2.785156c2.34375-1.242187 5.152344-1.242187 7.496094 0l5.25 2.785156c3.433593 1.816407 7.265625 2.765626 11.152343 2.757813 7.644532.015625 14.84375-3.59375 19.40625-9.726563l3.527344-4.800781c1.535156-2.171875 4.082032-3.398437 6.738282-3.238281l5.949218.214844c11.898438.53125 22.359375-7.816406 24.480469-19.535156l1.097656-5.839844c.488281-2.605469 2.238281-4.800782 4.671875-5.855469l5.449219-2.402344c10.855469-4.789062 16.621094-16.757812 13.597656-28.230469l-1.542969-5.746093c-.683593-2.554688-.0625-5.28125 1.664063-7.285157zm0 0" fill="#d2d76d"/><g fill="#eae7c0"><path d="m189.441406 320.078125h24v16h-24zm0 0"/><path d="m141.441406 264.078125h16v24h-16zm0 0"/><path d="m165.441406 328.078125c0 8.839844-7.164062 16-16 16-8.839844 0-16-7.160156-16-16 0-8.835937 7.160156-16 16-16 8.835938 0 16 7.164063 16 16zm0 0"/><path d="m141.441406 368.078125h16v24h-16zm0 0"/><path d="m85.441406 320.078125h24v16h-24zm0 0"/><path d="m172.066406 294.140625 16.96875-16.972656 11.3125 11.3125-16.96875 16.972656zm0 0"/><path d="m98.53125 288.480469 11.3125-11.3125 16.972656 16.96875-11.316406 11.3125zm0 0"/><path d="m172.0625 362.023438 11.3125-11.3125 16.972656 16.96875-11.316406 11.316406zm0 0"/><path d="m98.527344 367.679688 16.972656-16.972657 11.3125 11.316407-16.96875 16.96875zm0 0"/></g></svg>