<svg viewBox="0 0 472 472" xmlns="http://www.w3.org/2000/svg"><path d="m352 472v-213.097656c0-64.195313 20.824219-126.664063 59.34375-178.023438l60.65625-80.878906-29.800781 129.128906c-11.914063 51.636719-9.78125 105.527344 6.175781 156.0625 15.488281 49.03125 17.96875 101.242188 7.199219 151.519532l-7.574219 35.289062zm0 0" fill="#3d7606"/><path d="m392.289062 472h55.710938l7.558594-35.289062c10.769531-50.277344 8.289062-102.488282-7.199219-151.519532-13.621094-43.214844-17.160156-88.980468-10.34375-133.777344l-4.65625 12.800782c-22.109375 60.8125-34.542969 124.71875-36.847656 189.386718zm0 0" fill="#356605"/><path d="m272 120v-42.464844c.335938-21.953125-15.210938-40.949218-36.800781-44.960937-17.441407-2.863281-34.902344 4.996093-44.320313 19.953125-16.574218-33.957032-53.058594-53.460938-90.503906-48.375l-29.429688 3.917968 2.109376 15.859376 27.640624-3.683594c11.613282-1.726563 23.46875-.703125 34.617188 2.984375 21.601562 7.402343 38.402344 24.625 45.273438 46.402343-15.167969-12.3125-35.019532-17.246093-54.1875-13.472656l3.136718 15.679688c20.671875-4.085938 41.6875 5.21875 52.5625 23.265625l1.871094 3.117187v42.097656c-8.765625-7.917968-20.15625-12.308593-31.96875-12.320312h-8c-26.5.027344-47.972656 21.5-48 48h16c0-17.671875 14.328125-32 32-32h8c17.671875 0 32 14.328125 32 32v122.089844c-8.144531-6.765625-18.464844-10.351563-29.046875-10.089844-24.34375 1.242188-43.328125 21.535156-42.953125 45.902344v42.097656h16v-43.199219c-.1875-13.4375 9.023438-25.1875 22.121094-28.207031 8.269531-1.757812 16.894531.3125 23.46875 5.628906 6.574218 5.320313 10.398437 13.320313 10.410156 21.777344v140h16v-211.199219c-.1875-13.4375 9.023438-25.1875 22.121094-28.207031 8.269531-1.757812 16.894531.3125 23.46875 5.628906 6.574218 5.320313 10.398437 13.320313 10.410156 21.777344v4h16v-2.097656c.375-24.367188-18.609375-44.660156-42.953125-45.902344-10.582031-.261719-20.902344 3.324219-29.046875 10.089844v-149.289063c-.1875-13.4375 9.023438-25.1875 22.121094-28.207031 8.269531-1.757812 16.894531.3125 23.46875 5.628906 6.574218 5.320313 10.398437 13.320313 10.410156 21.777344v44zm0 0" fill="#3d7606"/><g fill="#fff"><path d="m72 8h-16c-30.914062.035156-55.9648438 25.085938-56 56 0 4.417969 3.582031 8 8 8h16c30.914062-.035156 55.964844-25.085938 56-56 0-4.417969-3.582031-8-8-8zm0 0"/><path d="m128 56h-16c-30.914062.035156-55.964844 25.085938-56 56 0 4.417969 3.582031 8 8 8h16c30.914062-.035156 55.964844-25.085938 56-56 0-4.417969-3.582031-8-8-8zm0 0"/><path d="m332.6875 180.6875c-5.714844-5.710938-14.972656-5.710938-20.6875 0v-19.015625c.355469-24.527344-17.441406-45.554687-41.6875-49.265625-13.710938-1.800781-27.53125 2.390625-37.929688 11.503906-10.398437 9.113282-16.371093 22.261719-16.382812 36.089844v20.6875c-5.714844-5.710938-14.972656-5.710938-20.6875 0l-.96875.96875 11.359375 11.359375c5.394531 5.390625 13.839844 6.226563 20.183594 2l14.113281-9.414063 15.136719 10.085938c5.367187 3.589844 12.367187 3.589844 17.734375 0l15.128906-10.085938 14.113281 9.398438c6.34375 4.226562 14.789063 3.390625 20.183594-2l11.359375-11.359375zm0 0"/><path d="m65.886719 251.015625 14.113281-9.414063 15.136719 10.085938c5.367187 3.589844 12.367187 3.589844 17.734375 0l15.128906-10.085938 14.113281 9.40625c6.34375 4.226563 14.792969 3.386719 20.183594-2.007812l11.359375-11.359375-.96875-.96875c-5.714844-5.710937-14.972656-5.710937-20.6875 0v-19c.355469-24.527344-17.441406-45.554687-41.6875-49.265625-13.710938-1.800781-27.53125 2.390625-37.929688 11.503906-10.398437 9.113282-16.371093 22.261719-16.382812 36.089844v20.6875c-5.714844-5.710938-14.972656-5.710938-20.6875 0l-.96875.96875 11.359375 11.359375c5.394531 5.390625 13.839844 6.226563 20.183594 2zm0 0"/><path d="m168 436.6875v-19.015625c.355469-24.527344-17.441406-45.554687-41.6875-49.265625-13.710938-1.800781-27.53125 2.390625-37.929688 11.503906-10.398437 9.113282-16.371093 22.261719-16.382812 36.089844v20.6875c-5.714844-5.710938-14.972656-5.710938-20.6875 0l-.96875.96875 11.359375 11.359375c5.394531 5.390625 13.839844 6.226563 20.183594 2l14.113281-9.414063 15.136719 10.085938c5.367187 3.589844 12.367187 3.589844 17.734375 0l15.128906-10.085938 14.113281 9.398438c6.34375 4.226562 14.789063 3.390625 20.183594-2l11.359375-11.359375-.96875-.96875c-5.714844-5.710937-14.972656-5.710937-20.6875 0zm0 0"/><path d="m340.6875 324.6875c-5.714844-5.710938-14.972656-5.710938-20.6875 0v-19.015625c.355469-24.527344-17.441406-45.554687-41.6875-49.265625-13.710938-1.800781-27.53125 2.390625-37.929688 11.503906-10.398437 9.113282-16.371093 22.261719-16.382812 36.089844v20.6875c-5.714844-5.710938-14.972656-5.710938-20.6875 0l-.96875.96875 11.367188 11.367188c5.390624 5.382812 13.828124 6.21875 20.167968 2l14.121094-9.421876 15.136719 10.085938c5.367187 3.589844 12.367187 3.589844 17.734375 0l15.128906-10.085938 14.113281 9.40625c6.34375 4.226563 14.792969 3.386719 20.183594-2.007812l11.359375-11.359375zm0 0"/></g></svg>