<svg viewBox="0 -96 464 464" xmlns="http://www.w3.org/2000/svg"><path d="m120 272h-90.878906c-7.632813.003906-14.203125-5.382812-15.695313-12.863281l-13.425781-67.136719 48 40" fill="#d74789"/><path d="m344 272h90.878906c7.632813.003906 14.203125-5.382812 15.695313-12.863281l13.425781-67.136719-48 40" fill="#d74789"/><path d="m351.113281 272c36.558594 0 67.398438-27.226562 71.933594-63.503906 5.238281-41.902344-2.996094-84.382813-23.503906-121.296875l-48.429688-87.199219-22.816406 41.070312 25.597656 46.113282c20.507813 36.921875 28.738281 79.40625 23.503907 121.3125-4.53125 36.277344-35.367188 63.5-71.925782 63.503906zm0 0" fill="#de498d"/><path d="m160 272v-.070312c-35.980469-.714844-65.980469-27.726563-70.457031-63.433594-5.238281-41.902344 2.992187-84.382813 23.496093-121.296875l24.433594-44-24-43.199219-48.433594 87.199219c-20.507812 36.914062-28.738281 79.394531-23.503906 121.296875 4.535156 36.277344 35.375 63.503906 71.9375 63.503906zm0 0" fill="#de498d"/><path d="m269.921875 64 35.550781-64 48.4375 87.199219c20.511719 36.917969 28.742188 79.40625 23.503906 121.3125-4.539062 36.277343-35.382812 63.492187-71.941406 63.488281h-144c-36.5625 0-67.402344-27.226562-71.9375-63.503906-5.234375-41.902344 2.996094-84.382813 23.503906-121.296875l48.433594-87.199219 35.558594 64" fill="#e34b91"/><path d="m160.0625 208.496094c4.535156 36.277344 35.375 63.503906 71.9375 63.503906s67.402344-27.226562 71.9375-63.503906c5.234375-41.902344-2.996094-84.382813-23.503906-121.296875l-48.433594-87.199219-35.265625 63.472656.296875.527344-.296875-.527344-13.167969 23.726563c-20.507812 36.914062-28.738281 79.394531-23.503906 121.296875zm0 0" fill="#e84d94"/></svg>