<svg viewBox="0 -6 464 464" xmlns="http://www.w3.org/2000/svg"><path d="m322 98.960938-2-2.960938c-15.628906-36.457031-42.027344-67.265625-75.664062-88.289062l-12.335938-7.710938-12.335938 7.710938c-33.636718 21.023437-60.035156 51.832031-75.664062 88.289062l-1.136719 2.960938-98.558593 203.199218-6.359376 10.601563c-24.359374 40.605469-32.214843 89.011719-21.945312 135.238281l2.894531.574219c49.863281 9.847656 101.578125-1.261719 142.992188-30.71875l60.320312-42.886719h19.585938l60.320312 42.886719c41.414063 29.457031 93.128907 40.566406 142.992188 30.71875l2.894531-.574219c10.273438-46.230469 2.417969-94.636719-21.945312-135.246094l-6.359376-10.601562zm0 0" fill="#b560b5"/><path d="m413.894531 137.351562c-15.535156-29.332031-47.984375-45.5625-80.773437-40.402343-32.792969 5.164062-58.683594 30.578125-64.457032 63.265625l-9 51.03125 1.601563-22.628906c3.023437-29.640626-10.945313-56.617188-29.304687-56.617188-18.050782 0-31.929688 26.113281-29.433594 55.359375l1.191406 20.183594-8.941406-50.640625c-5.367188-30.402344-29.113282-54.242188-59.5-59.726563-30.382813-5.480469-60.964844 8.550781-76.621094 35.160157l-58.65625 99.664062 80 126.625c11.574219 18.328125 32.914062 28.050781 54.339844 24.753906 21.425781-3.300781 38.855468-18.992187 44.378906-39.953125l9.457031-35.945312 15.25-57.929688 2.253907-8.582031 1.320312 23.03125h49l1.761719-25.320312 2.847656 10.847656 15.246094 57.929687 9.457031 35.941407c5.527344 20.949218 22.945312 36.628906 44.359375 39.933593 21.410156 3.304688 42.746094-6.398437 54.328125-24.707031l80-126.625zm0 0" fill="#d671d6"/><path d="m280 272c0-26.507812-21.492188-48-48-48 13.253906 0 24 10.746094 24 24s-10.746094 24-24 24-24-10.746094-24-24 10.746094-24 24-24c-23.328125.0625-43.230469 16.886719-47.175781 39.878906-3.949219 22.992188 9.207031 45.488282 31.175781 53.328125v2.792969h-16l25.144531 44.113281c1.445313 2.40625 4.046875 3.875 6.855469 3.875s5.410156-1.46875 6.855469-3.875l25.144531-44.113281h-16v-2.792969c19.160156-6.773437 31.980469-24.882812 32-45.207031zm0 0" fill="#950b25"/><path d="m256 248c0 13.253906-10.746094 24-24 24s-24-10.746094-24-24 10.746094-24 24-24 24 10.746094 24 24zm0 0" fill="#e67a18"/><g fill="#b03ab0"><path d="m367.992188 224h56.015624c4.414063 0 7.992188 3.578125 7.992188 7.992188v.015624c0 4.414063-3.578125 7.992188-7.992188 7.992188h-56.015624c-4.414063 0-7.992188-3.578125-7.992188-7.992188v-.015624c0-4.414063 3.578125-7.992188 7.992188-7.992188zm0 0"/><path d="m392 303.6875c-.011719 2.261719-.972656 4.410156-2.644531 5.929688-1.671875 1.523437-3.90625 2.273437-6.15625 2.070312-39.144531-2.972656-74.183594-25.40625-93.261719-59.71875l-8.921875-16.066406c-1.339844-2.410156-1.339844-5.34375 0-7.757813l8.921875-16.054687c19.066406-34.332032 54.105469-56.78125 93.261719-59.753906 2.25-.203126 4.484375.550781 6.15625 2.070312s2.632812 3.671875 2.644531 5.929688c.042969 4.121093-3.09375 7.582031-7.199219 7.945312-33.941406 2.441406-64.359375 21.835938-80.898437 51.574219l-4.605469 8.289062c-1.339844 2.414063-1.339844 5.347657 0 7.757813l4.605469 8.289062c16.542968 29.730469 46.960937 49.117188 80.898437 51.550782 4.105469.363281 7.242188 3.824218 7.199219 7.945312zm0 0"/><path d="m416 264c0 4.417969-3.582031 8-8 8h-10.945312c-30.980469.085938-60.710938-12.226562-82.558594-34.191406-1.554688-1.535156-2.429688-3.628906-2.429688-5.8125s.875-4.277344 2.429688-5.8125c21.859375-21.953125 51.582031-34.257813 82.558594-34.183594h10.945312c4.417969 0 8 3.582031 8 8s-3.582031 8-8 8h-10.945312c-20.167969-.054688-39.882813 5.988281-56.558594 17.335938-2.183594 1.511718-3.488282 4-3.488282 6.65625s1.304688 5.144531 3.488282 6.65625c16.671875 11.355468 36.386718 17.40625 56.558594 17.351562h10.945312c4.417969 0 8 3.582031 8 8zm0 0"/><path d="m39.992188 224h56.015624c4.414063 0 7.992188 3.578125 7.992188 7.992188v.015624c0 4.414063-3.578125 7.992188-7.992188 7.992188h-56.015624c-4.414063 0-7.992188-3.578125-7.992188-7.992188v-.015624c0-4.414063 3.578125-7.992188 7.992188-7.992188zm0 0"/><path d="m72 303.6875c-.042969-4.121094 3.09375-7.582031 7.199219-7.945312 33.941406-2.441407 64.359375-21.835938 80.898437-51.574219l4.605469-8.289063c1.339844-2.414062 1.339844-5.34375 0-7.757812l-4.605469-8.289063c-16.539062-29.738281-46.957031-49.132812-80.898437-51.574219-4.105469-.363281-7.242188-3.824218-7.199219-7.945312.011719-2.261719.972656-4.410156 2.644531-5.929688 1.671875-1.523437 3.90625-2.273437 6.15625-2.070312 39.144531 2.972656 74.183594 25.40625 93.261719 59.71875l8.921875 16.066406c1.339844 2.410156 1.339844 5.34375 0 7.757813l-8.921875 16.054687c-19.066406 34.332032-54.105469 56.78125-93.261719 59.753906-2.246093.199219-4.476562-.546874-6.148437-2.0625-1.671875-1.511718-2.632813-3.65625-2.652344-5.914062zm0 0"/><path d="m66.945312 272h-10.945312c-4.417969 0-8-3.582031-8-8s3.582031-8 8-8h10.945312c20.167969.054688 39.882813-5.988281 56.558594-17.335938 2.183594-1.511718 3.488282-4 3.488282-6.65625s-1.304688-5.144531-3.488282-6.65625c-16.671875-11.355468-36.386718-17.40625-56.558594-17.351562h-10.945312c-4.417969 0-8-3.582031-8-8s3.582031-8 8-8h10.945312c30.980469-.085938 60.710938 12.226562 82.558594 34.191406 1.554688 1.535156 2.429688 3.628906 2.429688 5.8125s-.875 4.277344-2.429688 5.8125c-21.859375 21.953125-51.582031 34.257813-82.558594 34.183594zm0 0"/></g><path d="m231.992188 32h.015624c4.414063 0 7.992188 3.578125 7.992188 7.992188v64.015624c0 4.414063-3.578125 7.992188-7.992188 7.992188h-.015624c-4.414063 0-7.992188-3.578125-7.992188-7.992188v-64.015624c0-4.414063 3.578125-7.992188 7.992188-7.992188zm0 0" fill="#d671d6"/><path d="m39.992188 412.699219 36.695312-36.699219c3.121094-3.121094 8.179688-3.121094 11.300781 0l.011719.011719c3.121094 3.121093 3.121094 8.183593 0 11.304687l-36.695312 36.695313c-3.121094 3.121093-8.179688 3.121093-11.300782 0l-.011718-.011719c-3.121094-3.121094-3.121094-8.179688 0-11.300781zm0 0" fill="#d671d6"/><path d="m375.996094 376.003906.011718-.011718c3.121094-3.121094 8.179688-3.121094 11.300782 0l36.695312 36.695312c3.121094 3.121094 3.121094 8.183594 0 11.304688l-.011718.011718c-3.121094 3.121094-8.179688 3.121094-11.300782 0l-36.695312-36.699218c-3.121094-3.121094-3.121094-8.179688 0-11.300782zm0 0" fill="#d671d6"/></svg>