<svg viewBox="0 -3 469.11511 469" xmlns="http://www.w3.org/2000/svg"><path d="m84.984375 265.660156c-16.753906 10-32.921875 20.949219-48.421875 32.800782-12.828125 10.316406-20.464844 25.757812-20.882812 42.214843-.417969 16.453125 6.425781 32.261719 18.714843 43.214844l8.925781 7.953125c4.753907 4.238281 10.992188 6.414062 17.34375 6.046875 13.238282-.757813 24.582032 9.359375 25.335938 22.59375.371094 6.355469 3.246094 12.304687 8 16.535156l14.355469 12.800781c21.355469 18.230469 52.851562 18.058594 74.007812-.40625l6.847657-6.234374c18.105468-16.507813 32.644531-36.542969 42.71875-58.878907 10.074218 22.347657 24.609374 42.398438 42.71875 58.917969 9.628906 11.933594 23.726562 19.402344 39.003906 20.65625 15.28125 1.253906 30.410156-3.8125 41.851562-14.015625l14.355469-12.800781c4.769531-4.441406 7.636719-10.558594 8-17.070313 1.019531-12.8125 11.953125-22.550781 24.796875-22.078125 6.515625.378906 12.921875-1.78125 17.875-6.027344l8.925781-7.949218c12.316407-11.042969 19.132813-26.957032 18.636719-43.492188-.5-16.535156-8.269531-32.003906-21.226562-42.285156l-37.136719-25.097656c13.953125-2.414063 27.703125-5.867188 41.144531-10.328125 15.609375-5.21875 28.132812-17.042969 34.242188-32.324219 6.109374-15.285156 5.183593-32.484375-2.53125-47.027344l-5.601563-10.558594c-2.984375-5.625-8.078125-9.832031-14.167969-11.695312-12.671875-3.890625-19.789062-17.3125-15.902344-29.984375 1.867188-6.085937 1.238282-12.664063-1.746093-18.289063l-5.597657-10.558593c-7.714843-14.539063-21.4375-24.945313-37.515624-28.457031-16.082032-3.511719-32.890626.226562-45.964844 10.222656l-8.488282 6.746094c2.199219-8.40625 4.019532-16.917969 5.464844-25.535157-.105468-35.972656-29.238281-65.105469-65.207031-65.2109372h-1.984375c-6.25-.09375-12.273438 2.3398442-16.699219 6.7539062-4.519531 4.671875-10.742187 7.3125-17.246093 7.3125-6.503907 0-12.726563-2.640625-17.246094-7.3125-4.425782-4.414062-10.449219-6.8476562-16.699219-6.7539062h-1.984375c-36.011719 0-65.203125 29.1992182-65.199219 65.2109372 2.472657 9.550781 3.949219 19.335938 4.410157 29.191407-8.1875-3.265626-16.175782-7.003907-23.929688-11.199219-7.746094-3.988281-16.203125-6.398438-24.886719-7.089844-9.464843.023437-18.652343 3.21875-26.089843 9.074219-10.648438 8.085937-22.917969 22.644531-18.261719 36.980468 4.078125 12.558594-2.75 26.050782-15.28125 30.203126-6.253907 1.917968-11.515625 6.191406-14.671875 11.917968l-5.601563 10.5625c-7.722656 14.628906-8.59375 31.925782-2.386719 47.261719 6.210938 15.335937 18.867188 27.148437 34.597657 32.289063zm0 0" fill="#d12439"/><path d="m367.929688 232.058594c0 75.113281-60.890626 136-136 136-75.109376 0-136-60.886719-136-136 0-75.109375 60.890624-136 136-136 75.109374 0 136 60.890625 136 136zm0 0" fill="#d14556"/><path d="m231.929688 160.058594c4.417968 0 8 3.582031 8 8 0 4.421875-3.582032 8-8 8-4.417969 0-8-3.578125-8-8 0-4.417969 3.582031-8 8-8zm0 0" fill="#f8bf51"/><path d="m295.929688 224.058594c4.417968 0 8 3.582031 8 8 0 4.421875-3.582032 8-8 8-4.417969 0-8-3.578125-8-8 0-4.417969 3.582031-8 8-8zm0 0" fill="#f8bf51"/><path d="m167.929688 224.058594c4.417968 0 8 3.582031 8 8 0 4.421875-3.582032 8-8 8-4.417969 0-8-3.578125-8-8 0-4.417969 3.582031-8 8-8zm0 0" fill="#f8bf51"/><path d="m231.929688 288.058594c4.417968 0 8 3.582031 8 8 0 4.421875-3.582032 8-8 8-4.417969 0-8-3.578125-8-8 0-4.417969 3.582031-8 8-8zm0 0" fill="#f8bf51"/><path d="m279.929688 232.058594c0-4.417969-3.582032-8-8-8h-9.128907c-.75-2.863282-1.894531-5.609375-3.398437-8.160156l6.464844-6.460938c3.121093-3.125 3.121093-8.1875 0-11.3125-3.125-3.125-8.191407-3.125-11.3125 0l-6.464844 6.464844c-2.546875-1.511719-5.292969-2.65625-8.160156-3.402344v-9.128906c0-4.417969-3.582032-8-8-8-4.417969 0-8 3.582031-8 8v9.128906c-2.863282.75-5.613282 1.894531-8.160157 3.402344l-6.464843-6.464844c-3.121094-3.125-8.1875-3.125-11.3125 0-3.121094 3.125-3.121094 8.1875 0 11.3125l6.464843 6.460938c-1.503906 2.550781-2.648437 5.296874-3.398437 8.160156h-9.128906c-4.417969 0-8 3.582031-8 8 0 4.421875 3.582031 8 8 8h9.128906c.75 2.867187 1.894531 5.613281 3.398437 8.160156l-6.464843 6.464844c-3.121094 3.125-3.121094 8.1875 0 11.3125 3.125 3.125 8.191406 3.125 11.3125 0l6.464843-6.464844c2.550781 1.507812 5.296875 2.652344 8.160157 3.402344v9.125c0 4.421875 3.582031 8 8 8 4.417968 0 8-3.578125 8-8v-9.125c2.863281-.75 5.609374-1.894532 8.160156-3.402344l6.464844 6.464844c3.121093 3.125 8.1875 3.125 11.3125 0 3.121093-3.125 3.121093-8.1875 0-11.3125l-6.464844-6.464844c1.503906-2.546875 2.648437-5.292969 3.398437-8.160156h9.128907c4.417968 0 8-3.578125 8-8zm0 0" fill="#d16b77"/><path d="m181.015625 181.148438c3.121094-3.125 8.1875-3.125 11.3125 0s3.125 8.1875 0 11.3125-8.191406 3.125-11.3125 0c-3.125-3.125-3.125-8.1875 0-11.3125zm0 0" fill="#f8bf51"/><path d="m271.527344 181.144531c3.125-3.121093 8.191406-3.121093 11.3125 0 3.125 3.125 3.125 8.191407 0 11.316407-3.121094 3.121093-8.1875 3.121093-11.3125 0-3.125-3.125-3.125-8.191407 0-11.316407zm0 0" fill="#f8bf51"/><path d="m181.015625 271.660156c3.125-3.125 8.1875-3.125 11.3125 0s3.125 8.191406 0 11.316406c-3.125 3.121094-8.1875 3.121094-11.3125 0-3.125-3.125-3.125-8.191406 0-11.316406zm0 0" fill="#f8bf51"/><path d="m271.527344 271.660156c3.125-3.125 8.191406-3.125 11.316406 0s3.125 8.1875 0 11.3125-8.191406 3.125-11.316406 0c-3.121094-3.125-3.121094-8.1875 0-11.3125zm0 0" fill="#f8bf51"/><g fill="#d16b77"><path d="m223.929688 56.058594c4.417968 0 8 3.582031 8 8v64c0 4.421875-3.582032 8-8 8-4.417969 0-8-3.578125-8-8v-64c0-4.417969 3.582031-8 8-8zm0 0"/><path d="m175.925781 96.058594.003907-.003906c3.449218-2.757813 8.484374-2.199219 11.246093 1.25l22.003907 27.503906c2.761718 3.453125 2.199218 8.484375-1.25 11.246094l-.003907.003906c-3.453125 2.761718-8.488281 2.203125-11.246093-1.25l-22.003907-27.503906c-2.761719-3.449219-2.203125-8.484376 1.25-11.246094zm0 0"/><path d="m238.675781 124.816406 22.003907-27.503906c2.757812-3.449219 7.792968-4.007812 11.242187-1.25l.007813.003906c3.449218 2.761719 4.007812 7.796875 1.25 11.246094l-22.003907 27.503906c-2.761719 3.453125-7.796875 4.011719-11.246093 1.25l-.003907-.003906c-3.453125-2.761719-4.011719-7.796875-1.25-11.246094zm0 0"/><path d="m66.339844 168.871094c1.734375-4.0625 6.4375-5.949219 10.5-4.210938l58.851562 25.152344c4.0625 1.734375 5.949219 6.4375 4.210938 10.5-1.734375 4.0625-6.4375 5.949219-10.5 4.210938l-58.851563-25.152344c-4.0625-1.734375-5.949219-6.4375-4.210937-10.5zm0 0"/><path d="m89.824219 218.882812 33.941406-9.421874c4.253906-1.183594 8.664063 1.308593 9.847656 5.566406v.007812c1.183594 4.257813-1.308593 8.667969-5.566406 9.847656l-33.941406 9.425782c-4.253907 1.183594-8.664063-1.3125-9.847657-5.566406v-.007813c-1.183593-4.257813 1.308594-8.667969 5.566407-9.851563zm0 0"/><path d="m121.980469 140.457031.007812-.003906c3.890625-2.085937 8.742188-.625 10.828125 3.269531l16.644532 31.042969c2.089843 3.894531.625 8.746094-3.269532 10.832031l-.007812.003906c-3.894532 2.085938-8.742188.625-10.828125-3.269531l-16.644531-31.042969c-2.089844-3.894531-.625-8.742187 3.269531-10.832031zm0 0"/><path d="m107.519531 355.324219 43.996094-46.476563c3.039063-3.210937 8.101563-3.347656 11.3125-.3125 3.207031 3.039063 3.347656 8.101563.308594 11.3125l-44 46.476563c-3.035157 3.207031-8.097657 3.347656-11.308594.308593-3.207031-3.035156-3.347656-8.101562-.308594-11.308593zm0 0"/><path d="m162.875 361.9375 2.925781-35.101562c.367188-4.402344 4.234375-7.675782 8.640625-7.308594h.007813c4.402343.371094 7.671875 4.238281 7.304687 8.640625l-2.929687 35.101562c-.367188 4.402344-4.234375 7.671875-8.636719 7.304688h-.007812c-4.402344-.367188-7.675782-4.234375-7.304688-8.636719zm0 0"/><path d="m107.285156 295.550781 34.890625-4.847656c4.375-.609375 8.417969 2.445313 9.023438 6.824219l.003906.007812c.605469 4.375-2.449219 8.414063-6.824219 9.023438l-34.890625 4.847656c-4.375.609375-8.414062-2.445312-9.023437-6.824219v-.007812c-.609375-4.375 2.445312-8.417969 6.820312-9.023438zm0 0"/><path d="m327.785156 189.816406 58.847656-25.152344c4.0625-1.734374 8.765626.148438 10.5 4.214844 1.738282 4.0625-.148437 8.761719-4.210937 10.5l-58.851563 25.148438c-4.0625 1.738281-8.761718-.148438-10.5-4.210938-1.734374-4.0625.152344-8.765625 4.214844-10.5zm0 0"/><path d="m329.863281 215.03125.003907-.007812c1.183593-4.257813 5.589843-6.75 9.847656-5.570313l33.941406 9.425781c4.257812 1.183594 6.75 5.589844 5.566406 9.847656v.007813c-1.183594 4.257813-5.59375 6.75-9.851562 5.570313l-33.9375-9.425782c-4.257813-1.183594-6.75-5.589844-5.570313-9.847656zm0 0"/><path d="m314.011719 174.769531 16.644531-31.042969c2.089844-3.894531 6.9375-5.359374 10.832031-3.269531l.007813.003907c3.890625 2.085937 5.355468 6.9375 3.269531 10.832031l-16.644531 31.042969c-2.089844 3.890624-6.9375 5.355468-10.832032 3.269531l-.007812-.003907c-3.890625-2.089843-5.355469-6.9375-3.269531-10.832031zm0 0"/><path d="m300.660156 308.53125c3.207032-3.039062 8.269532-2.898438 11.308594.308594l43.996094 46.476562c3.039062 3.210938 2.898437 8.273438-.308594 11.3125-3.207031 3.035156-8.273438 2.898438-11.308594-.3125l-44-46.476562c-3.035156-3.207032-2.898437-8.273438.3125-11.308594zm0 0"/><path d="m289.03125 319.523438.007812-.003907c4.402344-.367187 8.269532 2.90625 8.636719 7.308594l2.929688 35.101563c.367187 4.402343-2.902344 8.269531-7.304688 8.636718h-.007812c-4.40625.371094-8.273438-2.902344-8.640625-7.304687l-2.925782-35.101563c-.371093-4.402344 2.902344-8.269531 7.304688-8.636718zm0 0"/><path d="m312.265625 297.824219.003906-.007813c.609375-4.375 4.648438-7.425781 9.023438-6.816406l34.871093 4.863281c4.375.609375 7.425782 4.648438 6.816407 9.023438v.007812c-.613281 4.371094-4.652344 7.425781-9.027344 6.816407l-34.871094-4.863282c-4.375-.609375-7.425781-4.648437-6.816406-9.023437zm0 0"/></g></svg>