<svg viewBox="-3 0 471 471.84935" xmlns="http://www.w3.org/2000/svg"><path d="m146.71875 275.414062c-16.871094 10.125-35.636719 16.691407-55.140625 19.296876l-18.136719 17.601562c-32.003906 31.117188-54.359375 70.800781-64.394531 114.296875l-8.621094 37.390625 36.261719-8.367188c44.191406-10.199218 84.425781-33.117187 115.738281-65.921874h.886719c1.558594-4.667969 2.058594-9.625 1.464844-14.511719-2.152344-10.398438-17.550782-19.878907-17.550782-31.199219s15.398438-20.800781 17.550782-31.199219c2.304687-11.144531-7.832032-26.105469-3.410156-35.679687zm0 0" fill="#ff8cc2"/><path d="m313.488281 277.144531c4.417969 9.597657-5.71875 24.519531-3.414062 35.65625 2.152343 10.398438 17.550781 19.878907 17.550781 31.199219s-15.398438 20.800781-17.550781 31.199219c-.59375 4.886719-.097657 9.84375 1.453125 14.511719h.898437s71.550781 55.722656 115.734375 65.921874l36.265625 8.367188-8.625-37.390625c-10.039062-43.484375-32.394531-83.15625-64.390625-114.265625l-18.136718-17.601562c-19.503907-2.605469-38.269532-9.171876-55.144532-19.292969zm0 0" fill="#ff8cc2"/><path d="m392.425781 96h-.800781c-37.230469.714844-72.148438 18.191406-95.039062 47.558594l-3.753907 4.707031c-7.835937-53.585937-28.566406-104.460937-60.40625-148.265625-31.847656 43.800781-52.582031 94.679688-60.425781 148.265625l-3.75-4.707031c-22.886719-29.363282-57.800781-46.839844-95.023438-47.558594h-.800781c-39.765625 0-72 32.234375-72 72 0 39.769531 32.230469 128 72 128 26.167969-.019531 51.84375-7.136719 74.292969-20.585938l85.707031-51.414062 85.703125 51.414062c22.449219 13.449219 48.125 20.566407 74.296875 20.585938 39.765625 0 72-88.230469 72-128 0-39.765625-32.238281-72-72-72zm0 0" fill="#ff8cc2"/><g fill="#ffa1cd"><path d="m232.425781 16c4.417969 0 8 3.582031 8 8v160c0 4.417969-3.582031 8-8 8s-8-3.582031-8-8v-160c0-4.417969 3.582031-8 8-8zm0 0"/><path d="m24.425781 428.6875 76.683594-76.683594c3.125-3.125 8.1875-3.125 11.3125 0s3.125 8.191406 0 11.3125l-76.683594 76.6875c-3.125 3.121094-8.191406 3.121094-11.3125 0-3.125-3.125-3.125-8.191406 0-11.316406zm0 0"/><path d="m352.425781 352c3.125-3.125 8.191407-3.125 11.316407 0l76.683593 76.683594c3.125 3.125 3.125 8.191406 0 11.316406s-8.191406 3.125-11.3125 0l-76.6875-76.683594c-3.121093-3.125-3.121093-8.191406 0-11.316406zm0 0"/><path d="m232.425781 232c-.6875 0-1.371093-.089844-2.03125-.265625l-103.074219-27.117187c-30.140624-7.878907-54.972656-29.199219-67.320312-57.800782-.917969-2.078125-.921875-4.445312-.011719-6.527344.914063-2.078124 2.660157-3.679687 4.8125-4.410156 3.875-1.324218 8.121094.535156 9.777344 4.28125 10.347656 24.226563 31.316406 42.304688 56.796875 48.976563l99.019531 26.0625c1.328125.351562 2.730469.351562 4.0625 0l99-26.054688c25.5-6.660156 46.484375-24.742187 56.839844-48.976562 1.65625-3.746094 5.898437-5.605469 9.777344-4.28125 2.148437.730469 3.894531 2.332031 4.808593 4.410156.914063 2.082031.910157 4.449219-.011718 6.527344-12.34375 28.601562-37.175782 49.925781-67.320313 57.800781l-103.070312 27.117188c-.671875.175781-1.363281.261718-2.054688.257812zm0 0"/></g><path d="m164.480469 257.878906c-8.523438 2.597656-15.78125 8.257813-20.375 15.890625-2.554688 7.84375-2.273438 16.339844.800781 24 1.550781 4.289063 2.242188 8.847657 2.03125 13.40625-1.570312 3.867188-3.867188 7.398438-6.769531 10.398438-6.148438 5.972656-10.019531 13.90625-10.941407 22.425781.917969 8.53125 4.789063 16.476562 10.941407 22.457031 2.902343 3 5.203125 6.53125 6.769531 10.398438.210938 4.554687-.480469 9.105469-2.03125 13.390625-3.078125 7.660156-3.359375 16.15625-.800781 24 4.585937 7.636718 11.84375 13.300781 20.367187 15.898437 3.785156 1.34375 7.304688 3.34375 10.398438 5.902344 2.445312 3.707031 4.230468 7.808594 5.28125 12.121094 1.542968 8.65625 6.453125 16.34375 13.65625 21.382812 8.792968 3.296875 18.570312 2.691407 26.886718-1.664062 3.738282-1.59375 7.691407-2.632813 11.730469-3.085938 4.03125.441407 7.980469 1.46875 11.71875 3.046875 5.453125 2.28125 11.246094 3.632813 17.144531 4 3.386719.039063 6.730469-.757812 9.734376-2.320312 7.203124-5.035156 12.113281-12.722656 13.65625-21.375 1.054687-4.3125 2.84375-8.414063 5.289062-12.121094 3.09375-2.5625 6.613281-4.5625 10.398438-5.902344 8.523437-2.597656 15.78125-8.257812 20.378906-15.890625 2.554687-7.84375 2.269531-16.339843-.800782-24-1.546874-4.292969-2.234374-8.847656-2.023437-13.40625 1.570313-3.867187 3.867187-7.398437 6.765625-10.398437 6.148438-5.976563 10.015625-13.910156 10.9375-22.433594-.917969-8.53125-4.789062-16.476562-10.945312-22.457031-2.902344-3-5.199219-6.53125-6.765626-10.398438-.210937-4.554687.476563-9.105469 2.03125-13.390625 3.074219-7.660156 3.359376-16.15625.800782-24-4.589844-7.636718-11.847656-13.300781-20.371094-15.898437-4.222656-1.855469-67.949219-40.253907-67.949219-40.253907s-63.722656 38.398438-67.945312 40.277344zm0 0" fill="#d9257a"/><path d="m232.425781 320c4.417969 0 8 3.582031 8 8v56c0 4.417969-3.582031 8-8 8s-8-3.582031-8-8v-56c0-4.417969 3.582031-8 8-8zm0 0" fill="#941953"/><path d="m272.425781 288v-32c0 22.089844-17.910156 40-40 40-22.09375 0-40-17.910156-40-40v32c0 22.089844 17.90625 40 40 40 22.089844 0 40-17.910156 40-40zm0 0" fill="#e67a18"/><path d="m272.425781 256c0 22.089844-17.910156 40-40 40-22.09375 0-40-17.910156-40-40s17.90625-40 40-40c22.089844 0 40 17.910156 40 40zm0 0" fill="#941953"/></svg>