<svg viewBox="-110 0 448 448" xmlns="http://www.w3.org/2000/svg"><g fill="#3d7606"><path d="m12.382812 32c-4.78125.003906-9.132812 2.757812-11.183593 7.078125-2.050781 4.316406-1.433594 9.429687 1.582031 13.136719l83.847656 103.199218c2.347656 2.898438 5.875 4.582032 9.601563 4.585938.691406-.039062 1.378906-.140625 2.054687-.296875 4.332032-.710937 7.960938-3.675781 9.519532-7.78125 1.558593-4.105469.816406-8.726563-1.949219-12.136719l-17.695313-21.785156-66.152344-81.414062c-2.351562-2.902344-5.890624-4.589844-9.625-4.585938zm0 0"/><path d="m130.285156 159.703125c.675782.15625 1.363282.257813 2.058594.296875h.039062c3.726563-.003906 7.253907-1.6875 9.597657-4.585938l83.851562-103.199218c3.015625-3.707032 3.632813-8.820313 1.582031-13.136719-2.050781-4.320313-6.402343-7.074219-11.183593-7.078125h-.039063c-3.726562.003906-7.253906 1.6875-9.601562 4.585938l-66.175782 81.414062-17.695312 21.785156c-2.765625 3.410156-3.511719 8.03125-1.949219 12.136719 1.558594 4.105469 5.183594 7.070313 9.515625 7.78125zm0 0"/><path d="m95.695312 252-33.410156-89.40625c-.875-1.9375-.945312-4.140625-.195312-6.128906.75-1.984375 2.261718-3.59375 4.195312-4.464844 1.9375-.875 4.140625-.945312 6.125-.195312 1.988282.75 3.59375 2.257812 4.46875 4.195312l33.40625 89.40625c.875 1.9375.949219 4.140625.195313 6.128906-.75 1.984375-2.257813 3.59375-4.195313 4.464844-1.933594.875-4.136718.945312-6.125.195312-1.984375-.75-3.59375-2.257812-4.464844-4.195312zm0 0"/><path d="m122.285156 384c-1.933594-.871094-3.445312-2.480469-4.195312-4.464844-.75-1.988281-.679688-4.191406.195312-6.128906l33.410156-89.40625c.871094-1.9375 2.480469-3.445312 4.464844-4.195312 1.988282-.75 4.191406-.679688 6.125.195312 1.9375.871094 3.445313 2.480469 4.195313 4.464844.753906 1.988281.679687 4.191406-.195313 6.128906l-33.40625 89.40625c-.875 1.9375-2.480468 3.445312-4.46875 4.195312-1.984375.75-4.1875.679688-6.125-.195312zm0 0"/><path d="m95.695312 380-33.410156-89.40625c-.875-1.9375-.945312-4.140625-.195312-6.128906.75-1.984375 2.261718-3.59375 4.195312-4.464844 1.9375-.875 4.140625-.945312 6.125-.195312 1.988282.75 3.59375 2.257812 4.46875 4.195312l33.40625 89.40625c.875 1.9375.949219 4.140625.195313 6.128906-.75 1.984375-2.257813 3.59375-4.195313 4.464844-1.933594.875-4.136718.945312-6.125.195312-1.984375-.75-3.59375-2.257812-4.464844-4.195312zm0 0"/><path d="m122.285156 256c-1.933594-.871094-3.445312-2.480469-4.195312-4.464844-.75-1.988281-.679688-4.191406.195312-6.128906l33.410156-89.40625c.871094-1.9375 2.480469-3.445312 4.464844-4.195312 1.988282-.75 4.191406-.679688 6.125.195312 1.9375.871094 3.445313 2.480469 4.195313 4.464844.753906 1.988281.679687 4.191406-.195313 6.128906l-33.40625 89.40625c-.875 1.9375-2.480468 3.445312-4.46875 4.195312-1.984375.75-4.1875.679688-6.125-.195312zm0 0"/></g><path d="m130.285156 448v-313.601562c0-4.292969-1.730468-8.40625-4.800781-11.414063-6.21875-6.097656-16.175781-6.097656-22.398437 0-3.066407 3.007813-4.796876 7.121094-4.800782 11.414063v313.601562zm0 0" fill="#d2d76d"/><path d="m114.285156 0c-8.835937 0-16 7.164062-16 16v87.113281l16 28.4375 16-28.4375v-87.113281c0-8.835938-7.164062-16-16-16zm0 0" fill="#3d7606"/><path d="m113.855469 259.785156-83.847657-103.199218c-2.347656-2.898438-5.875-4.582032-9.601562-4.585938-4.78125.003906-9.132812 2.757812-11.183594 7.078125-2.050781 4.316406-1.433594 9.429687 1.582032 13.136719l83.847656 103.199218c2.347656 2.898438 5.875 4.582032 9.601562 4.585938.683594-.042969 1.363282-.140625 2.03125-.296875 4.332032-.710937 7.960938-3.675781 9.519532-7.78125 1.558593-4.105469.816406-8.726563-1.949219-12.136719zm0 0" fill="#498c07"/><path d="m124.382812 280c3.726563-.003906 7.253907-1.6875 9.597657-4.585938l83.851562-103.199218c3.015625-3.707032 3.632813-8.820313 1.582031-13.136719-2.050781-4.320313-6.402343-7.074219-11.183593-7.078125h-.039063c-3.726562.003906-7.253906 1.6875-9.601562 4.585938l-83.847656 103.199218c-2.765626 3.40625-3.511719 8.023438-1.957032 12.128906 1.554688 4.101563 5.171875 7.070313 9.5 7.789063.675782.15625 1.363282.257813 2.058594.296875zm0 0" fill="#498c07"/><path d="m10.71875 292.214844 83.847656 103.199218c2.347656 2.898438 5.871094 4.582032 9.601563 4.585938.710937-.035156 1.421875-.136719 2.117187-.296875 4.332032-.710937 7.960938-3.675781 9.519532-7.78125 1.558593-4.105469.816406-8.726563-1.949219-12.136719l-83.847657-103.199218c-2.347656-2.898438-5.875-4.582032-9.601562-4.585938-4.796875-.03125-9.179688 2.710938-11.253906 7.035156-2.074219 4.328125-1.460938 9.460938 1.566406 13.179688zm0 0" fill="#498c07"/><path d="m124.382812 400c3.726563-.003906 7.253907-1.6875 9.597657-4.585938l83.851562-103.199218c3.015625-3.707032 3.632813-8.820313 1.582031-13.136719-2.050781-4.320313-6.402343-7.074219-11.183593-7.078125h-.039063c-3.726562.003906-7.253906 1.6875-9.601562 4.585938l-83.847656 103.199218c-2.765626 3.40625-3.511719 8.023438-1.957032 12.128906 1.554688 4.101563 5.171875 7.070313 9.5 7.789063.675782.15625 1.363282.257813 2.058594.296875zm0 0" fill="#498c07"/><path d="m77.894531 115.753906-41.207031-73.273437c-2.160156-3.839844-2.121094-8.535157.101562-12.335938 2.222657-3.804687 6.292969-6.140625 10.695313-6.144531h3.554687c4.476563 0 8.605469 2.417969 10.800782 6.320312l52.445312 93.230469 52.449219-93.230469c2.195313-3.902343 6.324219-6.320312 10.800781-6.320312h3.550782c4.40625.003906 8.476562 2.339844 10.699218 6.144531 2.222656 3.800781 2.261719 8.496094.101563 12.335938l-41.214844 73.273437c-6.808594 12.113282-15.253906 23.234375-25.097656 33.046875-6.242188 6.214844-16.332031 6.214844-22.574219 0-9.847656-9.8125-18.296875-20.933593-25.105469-33.046875zm0 0" fill="#498c07"/></svg>