<svg version="1" xmlns="http://www.w3.org/2000/svg" width="682.667" height="682.667" viewBox="0 0 512.000000 512.000000"><path d="M360.5 8.3c-8.7 4.6-19.4 15.6-23.4 24-3.4 7.1-6.1 17.6-6.1 24 0 3.5-.2 3.8-2.2 3.1-8.9-2.8-20.4-3.2-29.2-.9-14.7 3.8-29.3 15.2-35.4 27.5-4.5 8.9-4.3 12.9.7 17.2 4.4 3.8 6.5 8 5.5 11.2-.3 1.1-2.6 3.9-5 6.2-5.6 5.2-5.9 9.1-1.3 17.3 6.8 12 16.3 20.4 28.6 25.3l6.2 2.4-2 3c-2.4 3.6-4.6 8.3-6.7 14.9-2.4 7.5-2.1 23.3.7 31 1.2 3.3 2.5 6.8 2.8 7.7.5 1.6-.3 1.8-6.3 1.8s-14.9 1.5-22 3.5c-2 .6-2.1.2-2.7-8.2-1-12.5-3.1-20.5-8.3-30.9-8-16.3-21.1-29.2-37.4-37-6.2-3-8.3-3.5-11.9-3.1-3.9.4-5.1 1.3-10.5 7.1-6 6.4-7.5 7.2-13.1 6.7-4.2-.3-7.7-2.5-10.6-6.7-5.5-8-11-9.2-21.3-4.5-17.9 8.1-33.1 23.8-40.6 42.1-3.8 9.2-6 19.5-6 27.9 0 3.9-.2 7.1-.4 7.1-.3 0-4.4-1-9.3-2.1-11.1-2.7-28.9-2.2-39.6 1-23.8 7.1-44.6 26-52.3 47.7-2.6 7.4-1 12.1 5.6 17.1 7.5 5.6 9.6 13 5.6 19.6-.6 1-3.2 3.4-5.8 5.2-6.4 4.7-8 9.5-5.4 16.9 4.1 11.6 13 23.7 24.3 33.1 6.7 5.5 20.1 12.7 26.1 14 3.7.8 3.9 1.7 1.1 5.6-3.3 4.6-8.5 16.9-10.2 23.9-4.6 18.9-2.3 38.7 6.5 55.2 4.7 8.9 9.2 10.7 19.5 7.7 8.3-2.3 9.6-2.3 14-.2 5.9 2.8 7.5 6.4 6.8 15.8-.6 8.7.8 12.7 5.7 15.9 3.9 2.5 14.8 4.6 24.6 4.6 22 0 40.3-7.3 56-22.4l7.4-7.1 4.2 4.5c15.7 17.1 37.6 25.9 61.4 24.8 13.8-.7 24-3.6 27.6-7.9 2.9-3.4 2.9-3.2 3-14.2.1-7.8.1-7.9 4-11.4 4.2-3.8 3.3-3.8 19.6-1.7 8.4 1 13.7-5 19.2-22.1 2-6 2.3-9.1 2.3-22.5 0-12.2-.4-16.7-1.9-21.4-2.4-7.7-6.1-16-9.1-20.4-1.4-2-2.5-4.2-2.5-4.8 0-.6 1.9-1.6 4.3-2.3 7-2.1 19-8.8 26-14.6 7.9-6.5 15.5-16.3 20.4-26.2 5.7-11.6 4.9-17.4-3.3-23.3-10-7.1-10-16.9 0-24 2.4-1.7 5-4.3 5.7-5.7 3-5.6.2-15.1-8-27.2-2.3-3.3-4.1-6.2-4.1-6.4 0-.3 1.7-.8 3.8-1.2 8.3-1.5 21.4-8.8 27.6-15.4l2.9-3 5.9 5.5c11.3 10.4 24.1 14.9 39.8 14.1 16.2-.8 22-4.8 20.5-14.3-.5-3.8-.3-4.6 2.3-7.5 3-3.4 4.8-3.7 13.2-2.4 6.2 1 9-1.4 12.5-10.7 5.5-14.6 4.5-31.2-2.7-45-1.8-3.5-3.4-6.6-3.6-7.1-.2-.4.3-.7 1.1-.7 3.1 0 16-7.4 21.4-12.3 9.2-8.5 16.2-20.8 14.9-26.2-.3-1.3-2.6-4.4-5.1-6.9-6.3-6.1-6.2-9.2.5-15.6 3.8-3.6 5-5.5 5-7.7 0-5.3-5.9-15.3-13.4-22.8-15.2-15.1-35.4-20.1-55.8-13.9-1.6.5-1.8-.2-1.8-5.3-.1-19-13.5-39.2-31.4-47.4-7-3.2-10-2.6-15.5 3.1-6.7 6.9-10.2 6.6-17-1.3-4.3-4.8-8.2-4.9-16.6-.4zm35.5 94.2c0 5.8.3 10.5.7 10.5.4 0 4-3.2 8-7.2l7.3-7.2 6 5.9 6 5.9-7.7 7.8-7.8 7.8H431v17h-22.5l7.8 7.8 7.7 7.8-6 5.9-6 5.9-7.3-7.2c-4-4-7.6-7.2-8-7.2-.4 0-.7 4.7-.7 10.5V177h-17v-21.4l-7.5 7.4-7.5 7.4-6-5.9-6-5.9 7.7-7.8 7.8-7.8H345v-17h22.5l-7.8-7.8-7.7-7.8 6-5.9 6-5.9 7.5 7.4 7.5 7.4V92h17v10.5zM191 280.7v29.8l21-21 21-21 6 6 6 6-20.7 20.7-20.8 20.8H263v17h-29.5c-16.2 0-29.5.3-29.5.7 0 .4 9.2 10 20.5 21.3l20.5 20.5-5.8 5.8-5.7 5.7-20.5-20.5c-11.3-11.3-20.8-20.5-21.2-20.5-.5 0-.8 13.3-.8 29.5V411h-17v-59.5l-20.8 20.8-20.7 20.7-6-6.1-6-6.1 20.8-20.1c11.4-11.1 20.7-20.5 20.7-21 0-.4-13.3-.7-29.5-.7H103v-17h59.5l-21-21-21-21 5.8-5.7 5.7-5.8 21 21 21 21V251h17v29.7z"/><path d="M380.7 126.8c-2.2 2.3-2.7 3.8-2.7 7.7 0 3.9.5 5.4 2.7 7.7 6.1 6.4 17.3 1.4 17.3-7.8 0-3.2-.6-4.6-3.3-7.2-4.5-4.3-10.1-4.5-14-.4zM170.2 317.3l-5.2 5.3v17l4.8 4.7 4.8 4.7h16l5.2-5.3 5.2-5.3v-16l-5.3-5.2-5.3-5.2h-15l-5.2 5.3z"/></svg>